<svg width="2413" height="433" xmlns="http://www.w3.org/2000/svg" xmlns:xlink="http://www.w3.org/1999/xlink" xml:space="preserve" overflow="hidden"><defs><clipPath id="clip0"><rect x="269" y="997" width="2413" height="433"/></clipPath></defs><g clip-path="url(#clip0)" transform="translate(-269 -997)"><path d="M269 1232C269 1122.65 357.648 1034 467 1034 576.353 1034 665 1122.65 665 1232 665 1341.35 576.353 1430 467 1430 357.648 1430 269 1341.35 269 1232Z" fill="#FFFFFF" fill-rule="evenodd"/><path d="M340 1237.5C340 1190.83 378.056 1153 425 1153 471.944 1153 510 1190.83 510 1237.5 510 1284.17 471.944 1322 425 1322 378.056 1322 340 1284.17 340 1237.5Z" fill="#FFFFFF" fill-rule="evenodd"/><path d="M319.5 1234.5C319.5 1179.82 363.824 1135.5 418.5 1135.5 473.176 1135.5 517.5 1179.82 517.5 1234.5 517.5 1289.18 473.176 1333.5 418.5 1333.5 363.824 1333.5 319.5 1289.18 319.5 1234.5Z" stroke="#000000" stroke-width="4.58333" stroke-miterlimit="8" stroke-opacity="0.501961" fill="none" fill-rule="evenodd"/><path d="M409.5 1232.5C409.5 1177.82 453.824 1133.5 508.5 1133.5 563.176 1133.5 607.5 1177.82 607.5 1232.5 607.5 1287.18 563.176 1331.5 508.5 1331.5 453.824 1331.5 409.5 1287.18 409.5 1232.5Z" stroke="#000000" stroke-width="4.58333" stroke-miterlimit="8" stroke-opacity="0.501961" fill="none" fill-rule="evenodd"/><path d="M1189.36 1195.7C1183.35 1195.7 1178.08 1196.8 1173.57 1199 1169.06 1201.21 1165.35 1204.43 1162.45 1208.67 1159.55 1212.92 1157.38 1218.02 1155.93 1223.98 1154.48 1229.94 1153.75 1236.74 1153.75 1244.36 1153.75 1251.45 1154.34 1257.98 1155.53 1263.94 1156.71 1269.9 1158.61 1275.09 1161.25 1279.49 1163.88 1283.89 1167.45 1287.3 1171.96 1289.72 1176.47 1292.14 1182.06 1293.35 1188.72 1293.35 1194.84 1293.35 1200.16 1292.25 1204.67 1290.04 1209.18 1287.84 1212.89 1284.65 1215.79 1280.46 1218.69 1276.27 1220.84 1271.19 1222.23 1265.23 1223.63 1259.27 1224.33 1252.47 1224.33 1244.85 1224.33 1237.76 1223.77 1231.23 1222.64 1225.27 1221.51 1219.31 1219.6 1214.12 1216.92 1209.72 1214.23 1205.31 1210.66 1201.88 1206.2 1199.41 1201.74 1196.94 1196.13 1195.7 1189.36 1195.7ZM1012.36 1195.7C1006.35 1195.7 1001.08 1196.8 996.572 1199 992.06 1201.21 988.354 1204.43 985.454 1208.67 982.554 1212.92 980.378 1218.02 978.928 1223.98 977.478 1229.94 976.753 1236.74 976.753 1244.36 976.753 1251.45 977.344 1257.98 978.525 1263.94 979.707 1269.9 981.614 1275.09 984.245 1279.49 986.877 1283.89 990.449 1287.3 994.961 1289.72 999.473 1292.14 1005.06 1293.35 1011.72 1293.35 1017.84 1293.35 1023.16 1292.25 1027.67 1290.04 1032.18 1287.84 1035.89 1284.65 1038.79 1280.46 1041.69 1276.27 1043.84 1271.19 1045.23 1265.23 1046.63 1259.27 1047.33 1252.47 1047.33 1244.85 1047.33 1237.76 1046.77 1231.23 1045.64 1225.27 1044.51 1219.31 1042.6 1214.12 1039.92 1209.72 1037.23 1205.31 1033.66 1201.88 1029.2 1199.41 1024.74 1196.94 1019.13 1195.7 1012.36 1195.7ZM1190.81 1163.64C1203.7 1163.64 1214.88 1165.38 1224.33 1168.87 1233.78 1172.36 1241.6 1177.49 1247.77 1184.26 1253.95 1191.03 1258.54 1199.35 1261.55 1209.24 1264.56 1219.12 1266.06 1230.45 1266.06 1243.23 1266.06 1255.48 1264.45 1266.65 1261.23 1276.75 1258.01 1286.85 1253.12 1295.55 1246.57 1302.85 1240.01 1310.16 1231.79 1315.8 1221.91 1319.77 1212.03 1323.75 1200.48 1325.73 1187.27 1325.73 1174.49 1325.73 1163.37 1323.96 1153.91 1320.42 1144.46 1316.87 1136.62 1311.72 1130.39 1304.95 1124.16 1298.18 1119.54 1289.86 1116.53 1279.97 1113.52 1270.09 1112.02 1258.81 1112.02 1246.14 1112.02 1233.89 1113.66 1222.69 1116.93 1212.54 1120.21 1202.39 1125.12 1193.69 1131.68 1186.44 1138.23 1179.18 1146.42 1173.57 1156.25 1169.6 1166.08 1165.62 1177.6 1163.64 1190.81 1163.64ZM1013.81 1163.64C1026.7 1163.64 1037.88 1165.38 1047.33 1168.87 1056.78 1172.36 1064.6 1177.49 1070.77 1184.26 1076.95 1191.03 1081.54 1199.35 1084.55 1209.24 1087.56 1219.12 1089.06 1230.45 1089.06 1243.23 1089.06 1255.48 1087.45 1266.65 1084.23 1276.75 1081.01 1286.85 1076.12 1295.55 1069.57 1302.85 1063.01 1310.16 1054.79 1315.8 1044.91 1319.77 1035.03 1323.75 1023.48 1325.73 1010.27 1325.73 997.485 1325.73 986.367 1323.96 976.914 1320.42 967.461 1316.87 959.619 1311.72 953.389 1304.95 947.158 1298.18 942.539 1289.86 939.531 1279.97 936.523 1270.09 935.019 1258.81 935.019 1246.14 935.019 1233.89 936.658 1222.69 939.934 1212.54 943.21 1202.39 948.125 1193.69 954.678 1186.44 961.23 1179.18 969.421 1173.57 979.25 1169.6 989.079 1165.62 1000.6 1163.64 1013.81 1163.64ZM857.827 1110.14C863.628 1110.14 869.214 1110.62 874.585 1111.59 879.956 1112.56 884.924 1113.82 889.49 1115.38 894.055 1116.93 898.164 1118.73 901.816 1120.77 905.469 1122.81 908.02 1124.56 909.47 1126.01 910.92 1127.46 911.914 1128.67 912.451 1129.64 912.988 1130.6 913.418 1131.84 913.74 1133.34 914.062 1134.85 914.304 1136.62 914.465 1138.66 914.626 1140.7 914.707 1143.23 914.707 1146.23 914.707 1149.46 914.599 1152.19 914.385 1154.45 914.17 1156.71 913.794 1158.53 913.257 1159.93 912.72 1161.33 912.075 1162.35 911.323 1162.99 910.571 1163.64 909.712 1163.96 908.745 1163.96 907.134 1163.96 905.093 1163.02 902.622 1161.14 900.151 1159.26 896.955 1157.16 893.035 1154.85 889.114 1152.54 884.441 1150.45 879.016 1148.57 873.591 1146.69 867.119 1145.75 859.599 1145.75 851.328 1145.75 843.943 1147.44 837.444 1150.83 830.945 1154.21 825.412 1159.04 820.847 1165.33 816.282 1171.61 812.817 1179.21 810.454 1188.13 808.091 1197.04 806.909 1207.09 806.909 1218.26 806.909 1230.51 808.171 1241.11 810.696 1250.08 813.22 1259.05 816.819 1266.44 821.492 1272.24 826.164 1278.04 831.804 1282.36 838.411 1285.21 845.017 1288.06 852.456 1289.48 860.727 1289.48 868.247 1289.48 874.746 1288.59 880.224 1286.82 885.703 1285.05 890.403 1283.09 894.324 1280.94 898.245 1278.79 901.467 1276.86 903.992 1275.14 906.516 1273.42 908.476 1272.56 909.873 1272.56 910.947 1272.56 911.807 1272.78 912.451 1273.21 913.096 1273.64 913.633 1274.49 914.062 1275.78 914.492 1277.07 914.814 1278.87 915.029 1281.18 915.244 1283.49 915.351 1286.58 915.351 1290.45 915.351 1293.13 915.271 1295.42 915.11 1297.29 914.949 1299.17 914.707 1300.79 914.385 1302.13 914.062 1303.47 913.633 1304.63 913.096 1305.59 912.558 1306.56 911.699 1307.66 910.517 1308.9 909.336 1310.13 907.053 1311.72 903.669 1313.65 900.286 1315.58 896.15 1317.44 891.262 1319.21 886.374 1320.98 880.788 1322.46 874.504 1323.64 868.22 1324.82 861.426 1325.41 854.121 1325.41 839.834 1325.41 826.943 1323.21 815.449 1318.81 803.955 1314.4 794.18 1307.82 786.123 1299.07 778.066 1290.31 771.89 1279.38 767.593 1266.28 763.296 1253.17 761.147 1237.92 761.147 1220.52 761.147 1202.79 763.511 1187.05 768.237 1173.3 772.964 1159.55 779.57 1148.01 788.057 1138.66 796.543 1129.31 806.721 1122.22 818.591 1117.39 830.461 1112.56 843.54 1110.14 857.827 1110.14Z" stroke="#FFFFFF" stroke-width="13" stroke-linejoin="round" stroke-miterlimit="10" fill="#FFFFFF" fill-rule="evenodd"/><text fill="#FFFFFF" fill-opacity="0" font-family="Arial,Arial_MSFontService,sans-serif" font-size="215.596" x="761.147" y="1298.79">Coo</text><path d="M1896.12 1251.94C1888.82 1251.94 1882.48 1252.55 1877.11 1253.79 1871.74 1255.02 1867.28 1256.85 1863.73 1259.27 1860.19 1261.68 1857.58 1264.58 1855.92 1267.97 1854.25 1271.35 1853.42 1275.25 1853.42 1279.65 1853.42 1287.17 1855.81 1293.16 1860.59 1297.62 1865.37 1302.08 1872.06 1304.3 1880.65 1304.3 1887.64 1304.3 1894.11 1302.53 1900.07 1298.99 1906.03 1295.44 1912.29 1290.02 1918.84 1282.71L1918.84 1251.94ZM1469.61 1188.61C1462.84 1188.61 1457.1 1190.22 1452.37 1193.44 1447.64 1196.67 1443.8 1200.91 1440.85 1206.17 1437.89 1211.44 1435.75 1217.4 1434.4 1224.06 1433.06 1230.72 1432.39 1237.49 1432.39 1244.36 1432.39 1251.67 1432.95 1258.81 1434.08 1265.79 1435.21 1272.78 1437.17 1278.98 1439.96 1284.4 1442.75 1289.83 1446.46 1294.18 1451.08 1297.46 1455.7 1300.73 1461.5 1302.37 1468.48 1302.37 1472.03 1302.37 1475.44 1301.89 1478.71 1300.92 1481.99 1299.95 1485.35 1298.34 1488.78 1296.09 1492.22 1293.83 1495.82 1290.9 1499.58 1287.3 1503.34 1283.71 1507.31 1279.27 1511.5 1274.01L1511.5 1216C1504.31 1207.09 1497.35 1200.29 1490.64 1195.62 1483.92 1190.95 1476.91 1188.61 1469.61 1188.61ZM2240.78 1187.97C2232.87 1187.97 2226.07 1189.36 2220.38 1192.16 2214.69 1194.95 2210 1198.9 2206.31 1204 2202.63 1209.1 2199.89 1215.14 2198.1 1222.13 2196.32 1229.11 2195.42 1236.74 2195.42 1245.01 2195.42 1252.96 2196.15 1260.42 2197.62 1267.4 2199.08 1274.39 2201.52 1280.48 2204.93 1285.69 2208.35 1290.9 2212.93 1295.04 2218.67 1298.1 2224.42 1301.16 2231.57 1302.69 2240.13 1302.69 2247.94 1302.69 2254.71 1301.3 2260.46 1298.5 2266.2 1295.71 2270.92 1291.79 2274.6 1286.74 2278.29 1281.69 2281 1275.68 2282.73 1268.69 2284.47 1261.71 2285.33 1254.03 2285.33 1245.65 2285.33 1237.81 2284.6 1230.4 2283.14 1223.42 2281.67 1216.43 2279.26 1210.31 2275.9 1205.05 2272.54 1199.78 2267.99 1195.62 2262.24 1192.56 2256.5 1189.5 2249.35 1187.97 2240.78 1187.97ZM2115.23 1167.99C2117.92 1167.99 2120.12 1168.09 2121.84 1168.31 2123.56 1168.52 2124.9 1168.85 2125.87 1169.27 2126.83 1169.7 2127.53 1170.24 2127.96 1170.89 2128.39 1171.53 2128.61 1172.23 2128.61 1172.98L2128.61 1318C2128.61 1318.86 2128.39 1319.58 2127.96 1320.18 2127.53 1320.77 2126.83 1321.28 2125.87 1321.71 2124.9 1322.14 2123.56 1322.46 2121.84 1322.67 2120.12 1322.89 2117.92 1323 2115.23 1323 2112.65 1323 2110.51 1322.89 2108.79 1322.67 2107.07 1322.46 2105.7 1322.14 2104.68 1321.71 2103.66 1321.28 2102.96 1320.77 2102.58 1320.18 2102.21 1319.58 2102.02 1318.86 2102.02 1318L2102.02 1172.98C2102.02 1172.23 2102.21 1171.53 2102.58 1170.89 2102.96 1170.24 2103.66 1169.7 2104.68 1169.27 2105.7 1168.85 2107.07 1168.52 2108.79 1168.31 2110.51 1168.09 2112.65 1167.99 2115.23 1167.99ZM1600.23 1167.99C1602.92 1167.99 1605.12 1168.09 1606.84 1168.31 1608.56 1168.52 1609.9 1168.85 1610.87 1169.27 1611.83 1169.7 1612.53 1170.24 1612.96 1170.89 1613.39 1171.53 1613.61 1172.23 1613.61 1172.98L1613.61 1318C1613.61 1318.86 1613.39 1319.58 1612.96 1320.18 1612.53 1320.77 1611.83 1321.28 1610.87 1321.71 1609.9 1322.14 1608.56 1322.46 1606.84 1322.67 1605.12 1322.89 1602.92 1323 1600.23 1323 1597.65 1323 1595.51 1322.89 1593.79 1322.67 1592.07 1322.46 1590.7 1322.14 1589.68 1321.71 1588.66 1321.28 1587.96 1320.77 1587.58 1320.18 1587.21 1319.58 1587.02 1318.86 1587.02 1318L1587.02 1172.98C1587.02 1172.23 1587.21 1171.53 1587.58 1170.89 1587.96 1170.24 1588.66 1169.7 1589.68 1169.27 1590.7 1168.85 1592.07 1168.52 1593.79 1168.31 1595.51 1168.09 1597.65 1167.99 1600.23 1167.99ZM2569.81 1165.73C2573.68 1165.73 2577.55 1166.05 2581.42 1166.7 2585.28 1167.34 2588.77 1168.15 2591.89 1169.11 2595 1170.08 2597.66 1171.13 2599.86 1172.26 2602.07 1173.38 2603.73 1174.38 2604.86 1175.24 2605.99 1176.1 2606.74 1176.85 2607.12 1177.49 2607.49 1178.14 2607.76 1178.86 2607.92 1179.67 2608.08 1180.47 2608.24 1181.47 2608.41 1182.65 2608.57 1183.83 2608.65 1185.28 2608.65 1187 2608.65 1188.83 2608.57 1190.41 2608.41 1191.75 2608.24 1193.1 2607.98 1194.2 2607.6 1195.06 2607.22 1195.92 2606.77 1196.53 2606.23 1196.91 2605.69 1197.29 2605.1 1197.47 2604.46 1197.47 2603.49 1197.47 2602.09 1196.88 2600.27 1195.7 2598.44 1194.52 2596.08 1193.26 2593.18 1191.91 2590.28 1190.57 2586.87 1189.31 2582.95 1188.13 2579.03 1186.95 2574.54 1186.35 2569.49 1186.35 2564.98 1186.35 2561.01 1186.87 2557.57 1187.89 2554.13 1188.91 2551.31 1190.36 2549.11 1192.24 2546.91 1194.12 2545.24 1196.35 2544.11 1198.92 2542.99 1201.5 2542.42 1204.29 2542.42 1207.3 2542.42 1211.49 2543.5 1215.01 2545.64 1217.86 2547.79 1220.7 2550.59 1223.2 2554.02 1225.35 2557.46 1227.5 2561.38 1229.43 2565.79 1231.15 2570.19 1232.87 2574.67 1234.64 2579.24 1236.47 2583.81 1238.29 2588.32 1240.33 2592.78 1242.59 2597.23 1244.85 2601.18 1247.59 2604.62 1250.81 2608.06 1254.03 2610.82 1257.9 2612.92 1262.41 2615.01 1266.92 2616.06 1272.29 2616.06 1278.52 2616.06 1285.94 2614.69 1292.54 2611.95 1298.34 2609.21 1304.14 2605.32 1309.03 2600.27 1313.01 2595.22 1316.98 2589.2 1319.99 2582.22 1322.03 2575.24 1324.07 2567.56 1325.09 2559.18 1325.09 2554.02 1325.09 2549.11 1324.69 2544.44 1323.88 2539.76 1323.08 2535.57 1322.06 2531.87 1320.82 2528.16 1319.58 2525.02 1318.3 2522.44 1316.95 2519.86 1315.61 2517.98 1314.4 2516.8 1313.33 2515.62 1312.25 2514.76 1310.75 2514.22 1308.82 2513.69 1306.88 2513.42 1304.25 2513.42 1300.92 2513.42 1298.88 2513.52 1297.16 2513.74 1295.76 2513.95 1294.37 2514.22 1293.24 2514.55 1292.38 2514.87 1291.52 2515.32 1290.9 2515.92 1290.53 2516.51 1290.15 2517.18 1289.96 2517.93 1289.96 2519.11 1289.96 2520.86 1290.69 2523.17 1292.14 2525.48 1293.59 2528.32 1295.17 2531.71 1296.89 2535.09 1298.61 2539.09 1300.2 2543.71 1301.65 2548.33 1303.1 2553.65 1303.82 2559.66 1303.82 2564.17 1303.82 2568.26 1303.34 2571.91 1302.37 2575.56 1301.4 2578.73 1299.98 2581.42 1298.1 2584.1 1296.22 2586.17 1293.83 2587.62 1290.93 2589.07 1288.03 2589.79 1284.59 2589.79 1280.62 2589.79 1276.54 2588.75 1273.1 2586.65 1270.31 2584.56 1267.51 2581.79 1265.04 2578.35 1262.89 2574.92 1260.74 2571.05 1258.84 2566.75 1257.17 2562.46 1255.51 2558.02 1253.76 2553.46 1251.94 2548.89 1250.11 2544.44 1248.04 2540.08 1245.73 2535.73 1243.42 2531.84 1240.6 2528.4 1237.27 2524.97 1233.94 2522.2 1229.97 2520.1 1225.35 2518.01 1220.73 2516.96 1215.2 2516.96 1208.75 2516.96 1203.06 2518.06 1197.61 2520.27 1192.4 2522.47 1187.19 2525.77 1182.62 2530.18 1178.7 2534.58 1174.78 2540.08 1171.64 2546.69 1169.27 2553.3 1166.91 2561.01 1165.73 2569.81 1165.73ZM2425.01 1165.73C2434.68 1165.73 2442.82 1167.37 2449.42 1170.64 2456.03 1173.92 2461.37 1178.3 2465.46 1183.78 2469.54 1189.26 2472.47 1195.67 2474.24 1203.03 2476.01 1210.39 2476.9 1219.23 2476.9 1229.54L2476.9 1318C2476.9 1318.86 2476.68 1319.58 2476.25 1320.18 2475.82 1320.77 2475.12 1321.28 2474.16 1321.71 2473.19 1322.14 2471.85 1322.46 2470.13 1322.67 2468.41 1322.89 2466.26 1323 2463.68 1323 2461 1323 2458.8 1322.89 2457.08 1322.67 2455.36 1322.46 2454.02 1322.14 2453.05 1321.71 2452.08 1321.28 2451.38 1320.77 2450.95 1320.18 2450.52 1319.58 2450.31 1318.86 2450.31 1318L2450.31 1233.08C2450.31 1224.81 2449.67 1218.15 2448.38 1213.1 2447.09 1208.05 2445.21 1203.7 2442.74 1200.05 2440.27 1196.4 2437.07 1193.61 2433.15 1191.67 2429.23 1189.74 2424.69 1188.77 2419.53 1188.77 2412.87 1188.77 2406.21 1191.14 2399.55 1195.86 2392.89 1200.59 2385.91 1207.52 2378.61 1216.65L2378.61 1318C2378.61 1318.86 2378.39 1319.58 2377.96 1320.18 2377.53 1320.77 2376.83 1321.28 2375.87 1321.71 2374.9 1322.14 2373.56 1322.46 2371.84 1322.67 2370.12 1322.89 2367.92 1323 2365.23 1323 2362.65 1323 2360.51 1322.89 2358.79 1322.67 2357.07 1322.46 2355.7 1322.14 2354.68 1321.71 2353.66 1321.28 2352.96 1320.77 2352.58 1320.18 2352.21 1319.58 2352.02 1318.86 2352.02 1318L2352.02 1172.98C2352.02 1172.12 2352.18 1171.4 2352.5 1170.81 2352.82 1170.21 2353.47 1169.68 2354.44 1169.19 2355.4 1168.71 2356.64 1168.39 2358.14 1168.23 2359.65 1168.07 2361.63 1167.99 2364.1 1167.99 2366.47 1167.99 2368.43 1168.07 2369.99 1168.23 2371.54 1168.39 2372.75 1168.71 2373.61 1169.19 2374.47 1169.68 2375.09 1170.21 2375.46 1170.81 2375.84 1171.4 2376.03 1172.12 2376.03 1172.98L2376.03 1192.16C2384.19 1183.02 2392.33 1176.34 2400.44 1172.09 2408.55 1167.85 2416.74 1165.73 2425.01 1165.73ZM2241.83 1165.73C2253.75 1165.73 2264.14 1167.5 2273.01 1171.05 2281.87 1174.59 2289.25 1179.75 2295.16 1186.52 2301.07 1193.28 2305.5 1201.5 2308.46 1211.17 2311.41 1220.84 2312.89 1231.74 2312.89 1243.88 2312.89 1255.7 2311.33 1266.57 2308.21 1276.51 2305.1 1286.45 2300.45 1295.01 2294.28 1302.21 2288.1 1309.41 2280.37 1315.02 2271.07 1319.05 2261.78 1323.08 2251.01 1325.09 2238.77 1325.09 2226.84 1325.09 2216.45 1323.32 2207.59 1319.77 2198.72 1316.23 2191.34 1311.07 2185.43 1304.3 2179.52 1297.54 2175.12 1289.32 2172.22 1279.65 2169.32 1269.98 2167.87 1259.03 2167.87 1246.78 2167.87 1234.96 2169.4 1224.09 2172.46 1214.15 2175.52 1204.21 2180.14 1195.65 2186.32 1188.45 2192.49 1181.25 2200.2 1175.67 2209.44 1171.69 2218.68 1167.72 2229.47 1165.73 2241.83 1165.73ZM1888.06 1165.73C1898.48 1165.73 1907.35 1166.91 1914.65 1169.27 1921.96 1171.64 1927.86 1175.1 1932.38 1179.67 1936.89 1184.23 1940.16 1189.9 1942.21 1196.67 1944.25 1203.44 1945.27 1211.33 1945.27 1220.35L1945.27 1318.16C1945.27 1319.45 1944.84 1320.42 1943.98 1321.06 1943.12 1321.71 1941.94 1322.19 1940.43 1322.51 1938.93 1322.83 1936.73 1323 1933.83 1323 1931.03 1323 1928.8 1322.83 1927.14 1322.51 1925.47 1322.19 1924.27 1321.71 1923.51 1321.06 1922.76 1320.42 1922.39 1319.45 1922.39 1318.16L1922.39 1303.66C1916.05 1310.43 1908.99 1315.69 1901.2 1319.45 1893.41 1323.21 1885.16 1325.09 1876.46 1325.09 1868.84 1325.09 1861.93 1324.1 1855.76 1322.11 1849.58 1320.12 1844.32 1317.25 1839.97 1313.49 1835.62 1309.73 1832.23 1305.11 1829.82 1299.63 1827.4 1294.15 1826.19 1287.92 1826.19 1280.94 1826.19 1272.78 1827.85 1265.69 1831.19 1259.67 1834.52 1253.65 1839.3 1248.66 1845.53 1244.69 1851.76 1240.71 1859.38 1237.73 1868.41 1235.74 1877.43 1233.75 1887.58 1232.76 1898.86 1232.76L1918.84 1232.76 1918.84 1221.48C1918.84 1215.9 1918.25 1210.95 1917.07 1206.66 1915.89 1202.36 1913.98 1198.79 1911.35 1195.94 1908.72 1193.1 1905.31 1190.95 1901.12 1189.5 1896.93 1188.05 1891.77 1187.32 1885.65 1187.32 1879.1 1187.32 1873.21 1188.1 1868 1189.66 1862.79 1191.22 1858.23 1192.93 1854.31 1194.81 1850.39 1196.69 1847.11 1198.41 1844.48 1199.97 1841.85 1201.53 1839.89 1202.31 1838.6 1202.31 1837.74 1202.31 1836.99 1202.09 1836.34 1201.66 1835.7 1201.23 1835.13 1200.59 1834.65 1199.73 1834.17 1198.87 1833.82 1197.77 1833.6 1196.43 1833.39 1195.08 1833.28 1193.61 1833.28 1191.99 1833.28 1189.31 1833.47 1187.19 1833.84 1185.63 1834.22 1184.07 1835.13 1182.6 1836.58 1181.2 1838.03 1179.8 1840.53 1178.16 1844.08 1176.28 1847.62 1174.4 1851.7 1172.69 1856.32 1171.13 1860.94 1169.57 1865.99 1168.28 1871.47 1167.26 1876.95 1166.24 1882.48 1165.73 1888.06 1165.73ZM1736.01 1165.73C1745.68 1165.73 1753.82 1167.37 1760.42 1170.64 1767.03 1173.92 1772.37 1178.3 1776.46 1183.78 1780.54 1189.26 1783.47 1195.67 1785.24 1203.03 1787.01 1210.39 1787.9 1219.23 1787.9 1229.54L1787.9 1318C1787.9 1318.86 1787.68 1319.58 1787.25 1320.18 1786.82 1320.77 1786.12 1321.28 1785.16 1321.71 1784.19 1322.14 1782.85 1322.46 1781.13 1322.67 1779.41 1322.89 1777.26 1323 1774.68 1323 1772 1323 1769.8 1322.89 1768.08 1322.67 1766.36 1322.46 1765.02 1322.14 1764.05 1321.71 1763.08 1321.28 1762.38 1320.77 1761.95 1320.18 1761.52 1319.58 1761.31 1318.86 1761.31 1318L1761.31 1233.08C1761.31 1224.81 1760.67 1218.15 1759.38 1213.1 1758.09 1208.05 1756.21 1203.7 1753.74 1200.05 1751.27 1196.4 1748.07 1193.61 1744.15 1191.67 1740.23 1189.74 1735.69 1188.77 1730.53 1188.77 1723.87 1188.77 1717.21 1191.14 1710.55 1195.86 1703.89 1200.59 1696.91 1207.52 1689.61 1216.65L1689.61 1318C1689.61 1318.86 1689.39 1319.58 1688.96 1320.18 1688.53 1320.77 1687.83 1321.28 1686.87 1321.71 1685.9 1322.14 1684.56 1322.46 1682.84 1322.67 1681.12 1322.89 1678.92 1323 1676.23 1323 1673.65 1323 1671.51 1322.89 1669.79 1322.67 1668.07 1322.46 1666.7 1322.14 1665.68 1321.71 1664.66 1321.28 1663.96 1320.77 1663.58 1320.18 1663.21 1319.58 1663.02 1318.86 1663.02 1318L1663.02 1172.98C1663.02 1172.12 1663.18 1171.4 1663.5 1170.81 1663.82 1170.21 1664.47 1169.68 1665.44 1169.19 1666.4 1168.71 1667.64 1168.39 1669.14 1168.23 1670.65 1168.07 1672.63 1167.99 1675.1 1167.99 1677.47 1167.99 1679.43 1168.07 1680.99 1168.23 1682.54 1168.39 1683.75 1168.71 1684.61 1169.19 1685.47 1169.68 1686.09 1170.21 1686.46 1170.81 1686.84 1171.4 1687.03 1172.12 1687.03 1172.98L1687.03 1192.16C1695.19 1183.02 1703.33 1176.34 1711.44 1172.09 1719.55 1167.85 1727.74 1165.73 1736.01 1165.73ZM1366.67 1165.73C1368.06 1165.73 1369.65 1165.81 1371.42 1165.97 1373.19 1166.13 1375.05 1166.43 1376.98 1166.86 1378.91 1167.29 1380.66 1167.77 1382.22 1168.31 1383.77 1168.85 1384.87 1169.38 1385.52 1169.92 1386.16 1170.46 1386.59 1170.97 1386.81 1171.45 1387.02 1171.93 1387.21 1172.55 1387.37 1173.3 1387.53 1174.06 1387.64 1175.16 1387.69 1176.61 1387.75 1178.06 1387.77 1180.02 1387.77 1182.49 1387.77 1184.85 1387.72 1186.84 1387.61 1188.45 1387.51 1190.06 1387.29 1191.32 1386.97 1192.24 1386.65 1193.15 1386.24 1193.85 1385.76 1194.33 1385.28 1194.81 1384.61 1195.06 1383.75 1195.06 1382.89 1195.06 1381.84 1194.81 1380.6 1194.33 1379.37 1193.85 1377.97 1193.36 1376.42 1192.88 1374.86 1192.4 1373.11 1191.94 1371.18 1191.51 1369.24 1191.08 1367.15 1190.87 1364.89 1190.87 1362.21 1190.87 1359.58 1191.4 1357 1192.48 1354.42 1193.55 1351.71 1195.32 1348.86 1197.8 1346.01 1200.27 1343.03 1203.54 1339.92 1207.62 1336.8 1211.71 1333.37 1216.7 1329.61 1222.61L1329.61 1318C1329.61 1318.86 1329.39 1319.58 1328.96 1320.18 1328.53 1320.77 1327.83 1321.28 1326.87 1321.71 1325.9 1322.14 1324.56 1322.46 1322.84 1322.67 1321.12 1322.89 1318.92 1323 1316.23 1323 1313.65 1323 1311.51 1322.89 1309.79 1322.67 1308.07 1322.46 1306.7 1322.14 1305.68 1321.71 1304.66 1321.28 1303.96 1320.77 1303.58 1320.18 1303.21 1319.58 1303.02 1318.86 1303.02 1318L1303.02 1172.98C1303.02 1172.12 1303.18 1171.4 1303.5 1170.81 1303.82 1170.21 1304.47 1169.68 1305.44 1169.19 1306.4 1168.71 1307.64 1168.39 1309.14 1168.23 1310.65 1168.07 1312.63 1167.99 1315.1 1167.99 1317.47 1167.99 1319.43 1168.07 1320.99 1168.23 1322.54 1168.39 1323.75 1168.71 1324.61 1169.19 1325.47 1169.68 1326.09 1170.21 1326.46 1170.81 1326.84 1171.4 1327.03 1172.12 1327.03 1172.98L1327.03 1194.09C1331 1188.29 1334.74 1183.56 1338.23 1179.91 1341.72 1176.26 1345.02 1173.38 1348.14 1171.29 1351.25 1169.19 1354.34 1167.74 1357.4 1166.94 1360.46 1166.13 1363.55 1165.73 1366.67 1165.73ZM2011.52 1129.15C2014.2 1129.15 2016.4 1129.26 2018.12 1129.48 2019.84 1129.69 2021.18 1130.04 2022.15 1130.52 2023.12 1131.01 2023.82 1131.57 2024.25 1132.21 2024.68 1132.86 2024.89 1133.56 2024.89 1134.31L2024.89 1168.79 2062.11 1168.79C2062.97 1168.79 2063.72 1168.98 2064.37 1169.36 2065.01 1169.73 2065.58 1170.38 2066.06 1171.29 2066.54 1172.2 2066.89 1173.36 2067.11 1174.75 2067.32 1176.15 2067.43 1177.87 2067.43 1179.91 2067.43 1183.78 2066.95 1186.57 2065.98 1188.29 2065.01 1190.01 2063.72 1190.87 2062.11 1190.87L2024.89 1190.87 2024.89 1271.76C2024.89 1281.75 2026.37 1289.29 2029.32 1294.39 2032.28 1299.5 2037.57 1302.05 2045.19 1302.05 2047.66 1302.05 2049.87 1301.81 2051.8 1301.32 2053.73 1300.84 2055.45 1300.33 2056.96 1299.79 2058.46 1299.26 2059.75 1298.75 2060.82 1298.26 2061.9 1297.78 2062.86 1297.54 2063.72 1297.54 2064.26 1297.54 2064.77 1297.67 2065.25 1297.94 2065.74 1298.21 2066.11 1298.72 2066.38 1299.47 2066.65 1300.22 2066.89 1301.24 2067.11 1302.53 2067.32 1303.82 2067.43 1305.43 2067.43 1307.37 2067.43 1310.48 2067.21 1312.95 2066.78 1314.78 2066.35 1316.6 2065.71 1317.95 2064.85 1318.81 2063.99 1319.67 2062.7 1320.47 2060.98 1321.22 2059.27 1321.98 2057.3 1322.59 2055.1 1323.08 2052.9 1323.56 2050.56 1323.96 2048.09 1324.28 2045.62 1324.61 2043.15 1324.77 2040.68 1324.77 2033.16 1324.77 2026.72 1323.77 2021.35 1321.79 2015.97 1319.8 2011.57 1316.79 2008.13 1312.76 2004.69 1308.74 2002.2 1303.63 2000.64 1297.46 1999.08 1291.28 1998.3 1284 1998.3 1275.62L1998.3 1190.87 1978 1190.87C1976.39 1190.87 1975.1 1190.01 1974.13 1188.29 1973.17 1186.57 1972.68 1183.78 1972.68 1179.91 1972.68 1177.87 1972.82 1176.15 1973.09 1174.75 1973.35 1173.36 1973.7 1172.2 1974.13 1171.29 1974.56 1170.38 1975.13 1169.73 1975.83 1169.36 1976.52 1168.98 1977.3 1168.79 1978.16 1168.79L1998.3 1168.79 1998.3 1134.31C1998.3 1133.56 1998.49 1132.86 1998.87 1132.21 1999.24 1131.57 1999.94 1131.01 2000.96 1130.52 2001.98 1130.04 2003.35 1129.69 2005.07 1129.48 2006.79 1129.26 2008.94 1129.15 2011.52 1129.15ZM2115.39 1108.21C2121.62 1108.21 2125.89 1109.31 2128.2 1111.51 2130.51 1113.71 2131.67 1117.87 2131.67 1124 2131.67 1130.23 2130.49 1134.47 2128.12 1136.73 2125.76 1138.98 2121.41 1140.11 2115.07 1140.11 2108.84 1140.11 2104.57 1139.01 2102.26 1136.81 2099.95 1134.6 2098.8 1130.44 2098.8 1124.32 2098.8 1118.09 2099.98 1113.85 2102.34 1111.59 2104.7 1109.33 2109.06 1108.21 2115.39 1108.21ZM1600.39 1108.21C1606.62 1108.21 1610.89 1109.31 1613.2 1111.51 1615.51 1113.71 1616.67 1117.87 1616.67 1124 1616.67 1130.23 1615.49 1134.47 1613.12 1136.73 1610.76 1138.98 1606.41 1140.11 1600.07 1140.11 1593.84 1140.11 1589.57 1139.01 1587.26 1136.81 1584.95 1134.6 1583.8 1130.44 1583.8 1124.32 1583.8 1118.09 1584.98 1113.85 1587.34 1111.59 1589.7 1109.33 1594.06 1108.21 1600.39 1108.21ZM1524.72 1098.22C1527.4 1098.22 1529.6 1098.35 1531.32 1098.62 1533.04 1098.89 1534.39 1099.21 1535.35 1099.58 1536.32 1099.96 1537.04 1100.5 1537.53 1101.2 1538.01 1101.89 1538.25 1102.62 1538.25 1103.37L1538.25 1318C1538.25 1318.86 1538.06 1319.61 1537.69 1320.26 1537.31 1320.9 1536.67 1321.41 1535.75 1321.79 1534.84 1322.16 1533.63 1322.46 1532.13 1322.67 1530.63 1322.89 1528.8 1323 1526.65 1323 1524.4 1323 1522.52 1322.89 1521.01 1322.67 1519.51 1322.46 1518.27 1322.16 1517.31 1321.79 1516.34 1321.41 1515.64 1320.9 1515.21 1320.26 1514.78 1319.61 1514.57 1318.86 1514.57 1318L1514.57 1298.83C1506.94 1307.1 1499.02 1313.54 1490.8 1318.16 1482.58 1322.78 1473.58 1325.09 1463.81 1325.09 1453.17 1325.09 1444.1 1323.02 1436.58 1318.89 1429.06 1314.75 1422.96 1309.17 1418.29 1302.13 1413.62 1295.09 1410.21 1286.82 1408.06 1277.31 1405.91 1267.81 1404.83 1257.79 1404.83 1247.26 1404.83 1234.8 1406.18 1223.55 1408.86 1213.51 1411.55 1203.46 1415.52 1194.9 1420.79 1187.81 1426.05 1180.72 1432.58 1175.26 1440.36 1171.45 1448.15 1167.64 1457.15 1165.73 1467.35 1165.73 1475.84 1165.73 1483.6 1167.58 1490.64 1171.29 1497.67 1175 1504.63 1180.45 1511.5 1187.64L1511.5 1103.37C1511.5 1102.62 1511.69 1101.89 1512.07 1101.2 1512.44 1100.5 1513.17 1099.96 1514.24 1099.58 1515.32 1099.21 1516.69 1098.89 1518.35 1098.62 1520.02 1098.35 1522.14 1098.22 1524.72 1098.22Z" stroke="#FFFFFF" stroke-width="13" stroke-linejoin="round" stroke-miterlimit="10" fill="#FFFFFF" fill-rule="evenodd"/><text fill="#FFFFFF" fill-opacity="0" font-family="Arial,Arial_MSFontService,sans-serif" font-size="226.875" x="1303.02" y="1296.73">rdinations</text><path d="M748.418 1359.02 1013.42 1359.02 1278.42 1359.02 1278.42 1381.02 1013.42 1381.02 748.418 1381.02Z" stroke="#FFFFFF" stroke-width="13" stroke-linejoin="round" stroke-miterlimit="10" fill="#FFFFFF" fill-rule="evenodd"/><path d="M425 1237.5C425 1190.83 463.056 1153 510 1153 556.944 1153 595 1190.83 595 1237.5 595 1284.17 556.944 1322 510 1322 463.056 1322 425 1284.17 425 1237.5Z" fill="#FFFFFF" fill-rule="evenodd"/></g></svg>
