<?xml version="1.0" encoding="UTF-8" ?>
<!DOCTYPE svg PUBLIC "-//W3C//DTD SVG 1.1//EN" "http://www.w3.org/Graphics/SVG/1.1/DTD/svg11.dtd">
<svg width="716pt" height="715pt" viewBox="0 0 716 715" version="1.1" xmlns="http://www.w3.org/2000/svg">
<g id="#ffffffff">
<path fill="#ffffff" opacity="1.00" d=" M 334.03 0.00 L 378.36 0.00 C 384.07 3.03 390.93 0.38 396.87 2.49 C 402.18 2.72 407.38 4.36 412.73 3.53 C 412.52 3.85 412.09 4.49 411.87 4.80 C 417.12 5.13 422.20 6.79 427.49 6.71 L 427.53 7.26 C 431.72 8.04 435.86 9.08 439.93 10.37 C 441.45 10.50 442.97 10.60 444.50 10.68 L 444.54 11.54 C 445.27 11.52 446.74 11.47 447.47 11.45 L 447.52 12.27 C 449.85 12.69 452.15 13.27 454.49 13.71 L 454.52 14.43 C 455.69 14.51 456.86 14.60 458.03 14.69 C 459.01 15.10 460.00 15.50 461.00 15.89 C 462.15 16.21 463.31 16.49 464.49 16.74 L 464.54 17.53 C 465.28 17.51 466.76 17.48 467.50 17.46 L 467.53 18.54 C 468.27 18.52 469.75 18.47 470.50 18.45 L 470.53 19.45 C 471.13 19.50 472.33 19.61 472.93 19.66 C 474.10 20.08 475.28 20.47 476.48 20.82 L 476.54 21.45 C 477.14 21.50 478.34 21.61 478.94 21.66 C 480.09 22.09 481.27 22.47 482.46 22.81 L 482.53 23.26 C 484.19 23.73 485.82 24.29 487.49 24.75 L 487.56 25.24 C 489.06 25.71 490.55 26.25 492.06 26.73 C 492.58 27.00 493.60 27.54 494.12 27.81 C 495.21 28.17 496.33 28.49 497.45 28.78 L 497.59 29.15 C 500.28 30.00 502.77 31.35 505.19 32.78 C 506.15 33.13 507.11 33.47 508.09 33.77 C 509.51 34.40 510.92 35.05 512.35 35.68 C 513.66 36.37 514.99 37.05 516.32 37.71 C 517.65 38.38 518.98 39.03 520.31 39.69 C 521.62 40.38 522.94 41.05 524.28 41.71 C 525.14 42.12 526.00 42.53 526.87 42.95 C 528.15 44.14 529.68 45.00 531.30 45.66 C 533.64 46.95 535.86 48.46 538.25 49.66 C 539.59 50.32 540.92 51.02 542.10 51.95 C 544.45 53.49 546.82 55.03 549.16 56.60 C 552.86 58.49 556.22 60.95 559.55 63.42 C 562.97 66.09 566.89 68.03 570.14 70.93 C 573.28 73.18 576.31 75.62 579.18 78.21 C 579.61 78.35 580.45 78.62 580.88 78.76 C 583.78 82.32 587.87 84.57 591.01 87.89 C 595.71 91.17 599.38 95.61 603.54 99.50 C 606.99 102.31 610.90 104.87 613.04 108.93 C 616.81 113.14 621.21 116.77 624.84 121.12 C 626.96 124.31 630.02 126.71 632.22 129.85 C 634.54 132.61 636.41 135.79 639.24 138.10 C 639.37 138.53 639.64 139.40 639.78 139.83 C 641.06 141.01 642.18 142.35 643.06 143.86 C 645.71 146.69 647.27 150.34 649.99 153.12 C 654.85 160.61 659.87 168.01 664.34 175.74 C 665.54 178.14 667.07 180.36 668.34 182.72 C 669.03 184.31 669.89 185.83 671.05 187.13 C 671.47 188.03 671.90 188.93 672.34 189.83 C 673.31 191.77 674.30 193.71 675.31 195.64 C 676.28 197.64 677.26 199.65 678.29 201.63 C 679.66 204.35 681.04 207.07 682.20 209.89 C 683.05 212.29 684.16 214.58 685.25 216.88 C 685.54 217.84 685.86 218.80 686.20 219.76 C 686.70 220.59 687.20 221.42 687.71 222.25 C 688.23 223.79 688.69 225.35 689.23 226.89 C 689.73 228.40 690.29 229.90 690.80 231.42 L 691.18 231.55 C 691.64 233.08 692.24 234.58 692.86 236.07 C 693.18 237.19 693.49 238.33 693.77 239.47 L 694.55 239.51 C 694.53 240.25 694.49 241.73 694.47 242.47 L 695.54 242.49 C 695.52 243.23 695.49 244.71 695.47 245.45 L 696.26 245.51 C 696.49 246.68 696.77 247.85 697.10 249.01 C 697.50 249.99 697.91 250.97 698.33 251.95 C 698.40 253.14 698.48 254.32 698.56 255.51 L 699.54 255.50 C 699.53 256.24 699.49 257.72 699.47 258.46 L 700.28 258.49 C 700.51 259.67 700.76 260.85 701.05 262.02 C 701.42 263.35 701.80 264.69 702.26 266.00 C 702.37 267.16 702.48 268.33 702.59 269.49 L 703.23 269.52 C 703.42 271.04 703.68 272.56 704.08 274.05 C 704.75 277.05 705.32 280.08 706.14 283.05 C 706.90 287.30 708.21 291.48 708.35 295.82 C 708.62 295.75 709.15 295.62 709.42 295.55 C 709.23 298.39 709.33 301.24 709.79 304.05 C 710.20 305.92 710.44 307.82 710.58 309.73 C 711.46 316.19 712.42 322.64 712.89 329.15 C 713.09 348.06 713.08 366.98 712.90 385.89 C 712.36 390.79 712.01 395.72 711.38 400.61 C 711.25 401.20 710.98 402.38 710.84 402.97 C 710.63 405.33 710.38 407.69 709.81 409.99 C 709.42 413.30 709.25 416.62 709.24 419.95 C 709.04 419.73 708.64 419.29 708.44 419.07 C 707.75 422.16 707.27 425.30 707.29 428.48 L 706.61 428.53 C 706.49 429.66 706.38 430.80 706.27 431.93 C 705.82 433.25 705.43 434.58 705.05 435.92 C 704.70 437.24 704.40 438.57 704.08 439.91 C 703.72 441.28 703.44 442.66 703.18 444.06 C 702.83 445.36 702.53 446.67 702.23 447.99 C 701.79 449.29 701.41 450.62 701.03 451.94 C 700.75 453.12 700.50 454.30 700.29 455.50 L 699.57 455.51 C 699.48 456.68 699.39 457.85 699.31 459.02 C 698.91 460.01 698.53 461.01 698.18 462.02 C 697.81 463.00 697.46 463.99 697.12 464.99 C 696.80 466.15 696.51 467.31 696.26 468.49 L 695.57 468.52 C 695.51 469.13 695.39 470.34 695.34 470.95 C 694.91 472.11 694.53 473.28 694.20 474.47 L 693.56 474.55 C 693.51 475.15 693.39 476.35 693.34 476.95 C 692.77 478.37 692.42 479.86 692.15 481.37 L 691.28 481.37 L 691.69 482.60 L 690.77 482.58 C 690.50 483.69 690.20 484.80 689.88 485.91 C 689.25 487.40 688.65 488.90 688.18 490.46 L 687.73 490.55 C 687.26 492.19 686.70 493.81 686.25 495.47 L 685.88 495.61 C 684.88 498.54 683.16 501.16 682.20 504.11 C 681.60 505.50 680.97 506.87 680.32 508.24 C 679.58 509.86 678.95 511.52 678.35 513.20 C 677.90 514.08 677.46 514.97 677.04 515.87 C 674.15 519.62 672.55 524.14 670.30 528.27 C 669.87 529.13 669.45 529.99 669.03 530.86 C 667.93 532.22 667.03 533.71 666.24 535.27 C 665.83 536.13 665.43 536.99 665.03 537.86 C 663.46 539.86 662.48 542.25 660.84 544.21 C 660.67 544.60 660.32 545.39 660.14 545.78 C 659.37 546.77 658.63 547.78 657.88 548.79 C 656.77 550.41 655.86 552.14 655.02 553.91 C 654.22 554.80 653.54 555.79 652.98 556.85 C 649.50 560.57 647.48 565.36 644.07 569.14 C 643.13 570.52 642.13 571.86 641.09 573.18 C 634.34 581.70 627.79 590.45 620.02 598.08 C 617.37 602.58 612.95 605.63 609.51 609.49 C 605.65 612.93 602.59 617.35 598.09 620.02 C 591.08 627.56 582.31 633.16 574.90 640.23 C 574.46 640.37 573.58 640.65 573.14 640.79 C 572.00 642.12 570.64 643.22 569.06 643.98 C 568.34 644.65 567.63 645.34 566.94 646.05 C 565.88 646.63 564.85 647.23 563.82 647.84 C 562.45 648.83 561.13 649.87 559.86 650.99 C 554.68 654.47 549.22 657.51 544.10 661.09 C 542.84 662.02 541.44 662.74 540.00 663.36 C 539.30 663.92 538.60 664.49 537.93 665.08 C 537.02 665.46 536.11 665.84 535.22 666.24 C 533.68 667.03 532.20 667.93 530.87 669.04 C 529.99 669.45 529.12 669.87 528.26 670.29 C 526.27 671.28 524.30 672.31 522.35 673.39 C 521.10 673.87 519.85 674.37 518.60 674.84 L 518.54 675.28 C 516.18 676.80 513.74 678.21 511.12 679.22 C 507.95 680.18 505.14 681.97 502.10 683.24 C 501.16 683.57 500.23 683.92 499.31 684.30 C 498.07 684.83 496.84 685.36 495.60 685.87 L 495.48 686.25 C 493.82 686.70 492.20 687.26 490.56 687.74 L 490.48 688.24 C 488.82 688.70 487.19 689.26 485.55 689.74 L 485.47 690.25 C 483.82 690.71 482.19 691.26 480.55 691.74 L 480.49 692.54 C 479.75 692.52 478.27 692.49 477.53 692.47 L 477.49 693.55 C 476.76 693.53 475.28 693.49 474.54 693.47 L 474.48 694.19 C 473.28 694.53 472.10 694.91 470.94 695.34 C 470.33 695.39 469.13 695.50 468.53 695.55 L 468.50 696.54 C 467.76 696.53 466.28 696.49 465.53 696.47 L 465.49 697.26 C 464.32 697.50 463.15 697.78 462.00 698.10 C 461.00 698.49 460.00 698.89 459.01 699.31 C 457.84 699.40 456.67 699.48 455.50 699.57 L 455.50 700.23 C 454.32 700.53 453.14 700.87 451.98 701.25 C 450.82 701.37 449.66 701.48 448.51 701.60 L 448.51 702.28 C 447.31 702.50 446.13 702.76 444.97 703.07 C 443.62 703.40 442.28 703.73 440.96 704.11 C 439.26 704.37 437.57 704.63 435.90 705.01 C 434.60 705.39 433.29 705.75 432.01 706.16 C 428.55 706.86 425.09 707.57 421.55 707.71 L 421.47 708.31 C 415.31 708.96 409.22 710.22 403.10 711.16 C 401.07 711.29 399.05 711.44 397.04 711.70 C 395.03 712.02 393.01 712.21 390.98 712.14 C 387.66 712.61 384.35 713.28 380.98 713.25 C 378.81 713.29 376.64 713.39 374.48 713.47 L 374.58 714.50 C 362.52 714.40 350.47 714.40 338.41 714.50 L 338.53 713.45 C 333.81 713.30 329.09 713.19 324.38 713.49 C 324.51 713.16 324.76 712.51 324.89 712.19 C 324.19 712.21 322.80 712.26 322.10 712.28 C 317.95 711.55 313.72 711.43 309.53 711.31 L 309.46 710.64 C 306.39 710.40 303.31 710.21 300.24 710.45 C 300.44 710.20 300.83 709.69 301.03 709.44 C 296.12 709.23 291.46 707.30 286.54 707.28 L 286.43 706.70 C 284.94 706.56 283.46 706.42 281.99 706.27 C 280.36 705.71 278.71 705.23 277.07 704.72 C 274.41 704.11 271.77 703.44 269.07 703.09 C 267.89 702.78 266.71 702.51 265.52 702.27 L 265.48 701.51 C 264.15 701.47 262.83 701.44 261.52 701.42 L 261.46 700.47 C 260.72 700.49 259.25 700.52 258.52 700.54 L 258.51 699.60 C 257.34 699.48 256.17 699.36 255.01 699.24 C 253.85 698.87 252.69 698.53 251.52 698.22 L 251.47 697.47 C 250.72 697.49 249.24 697.52 248.50 697.54 L 248.47 696.46 C 247.73 696.48 246.25 696.53 245.51 696.55 L 245.47 695.47 C 244.72 695.49 243.24 695.52 242.50 695.54 L 242.47 694.47 C 241.72 694.49 240.24 694.52 239.50 694.54 L 239.47 693.46 C 238.73 693.48 237.24 693.53 236.50 693.55 L 236.47 692.47 C 235.73 692.49 234.25 692.52 233.51 692.53 L 233.46 691.74 C 231.81 691.26 230.19 690.70 228.54 690.24 L 228.45 689.74 C 226.80 689.26 225.17 688.70 223.52 688.24 L 223.45 687.73 C 221.79 687.25 220.17 686.69 218.51 686.24 L 218.41 685.85 C 217.17 685.38 215.96 684.87 214.75 684.37 C 213.20 683.50 211.61 682.68 209.91 682.19 C 208.48 681.60 207.08 680.98 205.69 680.34 C 203.70 679.26 201.66 678.25 199.62 677.27 C 199.15 677.03 198.20 676.55 197.73 676.31 C 197.24 676.07 196.27 675.59 195.79 675.35 C 194.41 674.65 193.04 673.96 191.68 673.28 C 191.20 673.06 190.24 672.61 189.76 672.38 C 186.66 670.92 183.80 669.06 180.94 667.20 C 179.64 666.80 178.33 666.46 177.02 666.14 C 174.86 663.33 171.32 662.32 168.59 660.23 C 158.99 653.56 148.79 647.66 139.91 640.05 C 136.69 637.99 133.96 635.26 130.84 633.07 C 127.49 631.16 125.38 627.79 122.21 625.66 C 120.18 624.31 118.46 622.58 116.89 620.73 C 116.42 620.62 115.47 620.40 115.00 620.30 C 114.15 618.75 113.48 616.99 111.96 615.97 C 106.11 611.91 101.38 606.49 96.98 600.96 C 90.37 594.84 84.94 587.67 79.04 580.91 C 75.91 576.18 71.71 572.23 68.75 567.38 C 66.68 563.83 63.89 560.78 61.70 557.31 C 59.77 554.51 58.20 551.44 55.87 548.93 C 55.53 547.96 55.19 546.98 54.85 546.02 C 54.18 545.31 53.51 544.60 52.83 543.90 C 52.66 543.47 52.32 542.61 52.15 542.18 C 51.07 541.00 50.30 539.61 49.63 538.19 C 48.43 535.75 46.90 533.51 45.56 531.16 C 44.10 528.93 42.77 526.62 41.61 524.22 C 41.39 523.75 40.94 522.79 40.72 522.31 C 39.73 520.31 38.72 518.33 37.71 516.35 C 36.74 514.32 35.72 512.31 34.62 510.35 C 34.12 509.10 33.62 507.85 33.17 506.60 L 32.78 506.45 C 32.49 505.35 32.16 504.26 31.80 503.18 C 30.61 501.03 29.43 498.87 28.30 496.69 C 27.77 495.16 27.29 493.62 26.77 492.10 C 26.27 490.58 25.71 489.08 25.21 487.57 L 24.76 487.48 C 24.30 485.81 23.74 484.17 23.27 482.51 L 22.75 482.52 C 22.29 480.83 21.74 479.17 21.26 477.50 L 20.45 477.52 C 20.48 476.78 20.52 475.29 20.54 474.54 L 19.46 474.49 C 19.48 473.75 19.51 472.28 19.53 471.54 L 18.46 471.49 C 18.48 470.75 18.51 469.27 18.53 468.53 L 17.46 468.50 C 17.48 467.76 17.52 466.28 17.54 465.54 L 16.78 465.48 C 16.46 464.31 16.12 463.14 15.75 461.99 C 15.63 460.82 15.52 459.65 15.42 458.49 L 14.79 458.48 C 14.47 457.27 14.12 456.08 13.73 454.91 C 13.70 454.28 13.63 453.03 13.59 452.41 L 12.77 452.44 C 12.65 450.61 12.47 448.76 11.83 447.03 C 11.19 444.68 10.59 442.31 9.80 440.01 C 9.39 437.70 9.00 435.38 8.80 433.04 C 8.48 433.17 7.83 433.44 7.51 433.57 C 7.99 430.03 6.89 426.57 6.58 423.08 C 5.68 423.62 4.95 423.71 5.30 422.36 C 5.61 420.10 5.56 417.83 5.39 415.57 L 4.56 415.48 C 4.58 414.14 4.60 412.81 4.62 411.49 L 3.55 411.51 C 3.78 406.99 2.92 402.52 2.97 398.01 C 3.00 370.33 2.98 342.65 2.98 314.97 C 3.06 310.76 3.75 306.59 3.54 302.37 L 4.61 302.62 C 4.60 301.24 4.59 299.86 4.57 298.49 L 5.49 298.51 C 5.52 297.18 5.55 295.85 5.57 294.53 L 6.28 294.44 C 6.30 290.56 7.08 286.76 7.83 282.98 C 8.83 280.09 9.59 277.11 9.88 274.06 C 10.26 272.72 10.60 271.37 10.95 270.03 C 11.24 268.86 11.49 267.67 11.71 266.49 L 12.50 266.50 C 12.53 265.16 12.55 263.83 12.57 262.50 L 13.53 262.47 C 13.51 261.73 13.48 260.25 13.47 259.51 L 14.27 259.47 C 14.80 255.81 15.90 252.26 17.19 248.81 C 17.51 247.85 17.83 246.89 18.17 245.94 C 19.10 242.87 20.13 239.83 21.20 236.81 C 21.52 235.82 21.85 234.84 22.19 233.87 C 24.15 229.18 25.68 224.33 27.72 219.67 C 28.71 217.80 29.50 215.84 30.17 213.85 C 30.80 212.51 31.46 211.18 32.13 209.87 C 32.39 209.36 32.91 208.33 33.17 207.81 C 33.66 206.11 34.31 204.47 35.10 202.89 C 35.35 202.38 35.86 201.38 36.12 200.88 C 36.78 199.56 37.45 198.24 38.14 196.94 C 38.37 196.43 38.85 195.42 39.08 194.91 C 40.54 191.80 42.57 189.00 44.15 185.95 C 45.21 183.46 46.65 181.17 48.16 178.94 C 49.22 176.44 50.65 174.13 52.16 171.87 C 52.74 170.86 53.32 169.85 53.92 168.84 C 58.11 162.70 62.17 156.46 66.33 150.29 C 70.71 144.17 75.40 138.27 79.91 132.26 C 84.40 127.28 88.65 122.10 93.00 116.99 C 101.45 108.67 109.70 100.13 118.24 91.90 C 120.91 90.46 122.82 88.07 125.04 86.06 C 130.45 81.68 135.71 77.10 141.33 72.97 C 144.09 70.87 146.88 68.80 149.86 67.00 C 153.82 63.52 158.51 61.00 162.83 58.00 C 165.81 56.00 168.70 53.86 171.86 52.15 C 173.54 51.12 175.19 50.04 176.91 49.08 C 179.59 47.78 182.10 46.17 184.64 44.62 C 185.75 44.14 186.84 43.63 187.95 43.14 C 188.44 42.91 189.43 42.45 189.92 42.22 C 191.80 40.94 193.73 39.73 195.73 38.63 C 197.48 37.85 199.19 37.00 200.88 36.09 C 202.42 35.38 203.99 34.74 205.61 34.20 C 207.05 33.52 208.48 32.83 209.91 32.12 C 211.25 31.45 212.59 30.80 213.95 30.18 C 216.33 29.32 218.64 28.28 220.92 27.18 C 222.21 26.72 223.50 26.30 224.79 25.84 C 230.81 23.56 236.69 20.85 242.94 19.19 C 243.85 18.85 244.76 18.51 245.69 18.18 C 246.74 17.85 247.81 17.54 248.88 17.24 C 250.19 16.73 251.51 16.26 252.82 15.75 C 256.03 14.91 259.21 13.94 262.46 13.23 L 262.49 12.57 C 263.10 12.56 264.33 12.54 264.94 12.53 C 266.29 12.10 267.63 11.69 269.00 11.30 C 270.34 10.95 271.68 10.64 273.04 10.35 C 275.73 9.69 278.42 9.00 281.11 8.33 C 283.16 7.86 285.23 7.48 287.28 7.01 C 288.97 6.68 290.68 6.41 292.35 5.94 C 294.34 5.69 296.35 5.52 298.31 5.05 C 301.86 4.19 305.46 3.53 309.13 3.51 C 311.90 2.33 314.97 2.77 317.90 2.46 C 319.17 1.80 320.59 1.59 322.02 1.66 C 326.59 1.74 331.14 1.29 335.69 1.02 L 334.03 0.00 M 281.37 18.49 C 270.91 20.60 261.17 25.08 251.63 29.71 C 230.77 40.06 211.11 53.12 194.30 69.29 C 192.01 71.32 189.71 73.32 187.53 75.46 C 175.29 88.35 163.44 101.75 154.15 116.98 C 139.94 139.15 129.54 163.72 123.18 189.26 C 117.02 197.48 115.17 208.23 116.95 218.23 L 117.30 218.38 C 117.76 223.95 116.63 229.47 116.50 235.04 C 116.20 243.83 116.07 252.64 116.70 261.42 C 116.12 261.43 114.97 261.44 114.39 261.45 C 113.87 270.62 114.29 279.81 114.16 288.99 C 114.24 394.30 113.99 499.62 114.28 604.92 C 120.79 611.97 128.33 618.05 135.56 624.36 C 151.71 637.22 168.46 649.57 186.74 659.23 C 186.75 643.82 186.71 628.40 186.75 612.99 C 186.54 611.50 187.21 610.66 188.75 610.46 C 188.68 546.83 188.73 483.20 188.73 419.57 C 195.18 425.01 200.93 431.24 207.65 436.35 C 244.64 466.04 290.68 484.34 337.98 487.91 C 401.10 493.45 466.13 472.56 513.99 430.95 C 521.01 424.31 528.53 418.16 534.76 410.72 C 555.89 388.50 572.07 361.75 583.08 333.18 C 599.92 289.48 603.32 240.85 593.39 195.13 C 585.02 157.17 567.42 121.29 542.45 91.49 C 535.21 83.75 528.42 75.56 520.30 68.70 C 500.25 49.66 476.36 34.89 451.01 23.99 C 444.65 21.14 437.84 19.62 431.08 18.08 C 381.93 7.42 330.46 7.50 281.37 18.49 Z" />
<path fill="#ffffff" opacity="1.00" d=" M 346.17 78.28 L 346.91 77.73 C 355.96 77.35 364.99 77.59 373.99 78.45 C 414.00 81.99 452.42 100.95 479.77 130.32 C 503.89 155.12 519.53 187.88 524.47 222.07 C 530.00 258.62 523.07 296.91 505.14 329.25 C 492.63 351.95 474.50 371.40 453.37 386.30 C 417.90 411.06 372.61 421.14 329.98 413.88 C 301.79 409.29 274.82 397.27 252.56 379.37 C 242.33 371.00 233.00 361.56 224.69 351.29 C 205.50 326.85 193.37 296.93 189.94 266.05 C 185.55 228.50 194.31 189.56 214.34 157.49 C 223.52 142.16 235.84 128.96 249.20 117.21 C 276.16 94.26 310.76 79.99 346.17 78.28 Z" />
</g>
<g id="#663300ff">
<path fill="#663300" opacity="1.00" d=" M 281.37 18.49 C 330.46 7.50 381.93 7.42 431.08 18.08 C 437.84 19.62 444.65 21.14 451.01 23.99 C 476.36 34.89 500.25 49.66 520.30 68.70 C 528.42 75.56 535.21 83.75 542.45 91.49 C 567.42 121.29 585.02 157.17 593.39 195.13 C 603.32 240.85 599.92 289.48 583.08 333.18 C 572.07 361.75 555.89 388.50 534.76 410.72 C 528.53 418.16 521.01 424.31 513.99 430.95 C 466.13 472.56 401.10 493.45 337.98 487.91 C 290.68 484.34 244.64 466.04 207.65 436.35 C 200.93 431.24 195.18 425.01 188.73 419.57 C 188.67 366.88 188.80 314.19 188.67 261.50 C 164.68 261.22 140.69 261.38 116.70 261.42 C 116.07 252.64 116.20 243.83 116.50 235.04 C 116.63 229.47 117.76 223.95 117.30 218.38 C 117.51 218.47 117.94 218.65 118.15 218.74 C 118.07 223.98 121.26 228.54 124.36 232.50 C 130.03 239.30 138.30 243.82 147.09 244.94 C 159.97 246.70 173.52 240.59 180.73 229.78 C 189.58 217.02 188.43 198.48 177.94 187.01 C 168.17 175.53 150.71 171.92 137.07 178.19 C 131.57 180.60 126.89 184.59 123.18 189.26 C 129.54 163.72 139.94 139.15 154.15 116.98 C 163.44 101.75 175.29 88.35 187.53 75.46 C 189.71 73.32 192.01 71.32 194.30 69.29 C 211.11 53.12 230.77 40.06 251.63 29.71 C 261.17 25.08 270.91 20.60 281.37 18.49 M 346.17 78.28 C 310.76 79.99 276.16 94.26 249.20 117.21 C 235.84 128.96 223.52 142.16 214.34 157.49 C 194.31 189.56 185.55 228.50 189.94 266.05 C 193.37 296.93 205.50 326.85 224.69 351.29 C 233.00 361.56 242.33 371.00 252.56 379.37 C 274.82 397.27 301.79 409.29 329.98 413.88 C 372.61 421.14 417.90 411.06 453.37 386.30 C 474.50 371.40 492.63 351.95 505.14 329.25 C 523.07 296.91 530.00 258.62 524.47 222.07 C 519.53 187.88 503.89 155.12 479.77 130.32 C 452.42 100.95 414.00 81.99 373.99 78.45 C 364.99 77.59 355.96 77.35 346.91 77.73 L 346.17 78.28 Z" />
<path fill="#663300" opacity="1.00" d=" M 711.27 308.00 C 711.37 309.37 711.46 310.73 711.59 312.10 C 713.96 317.44 712.54 323.50 712.89 329.15 C 712.42 322.64 711.46 316.19 710.58 309.73 L 711.27 308.00 Z" />
<path fill="#663300" opacity="1.00" d=" M 711.38 400.61 C 712.01 395.72 712.36 390.79 712.90 385.89 C 712.95 390.86 712.89 395.83 712.80 400.81 L 711.38 400.61 Z" />
</g>
<g id="#0066ffff">
<path fill="#0066ff" opacity="1.00" d=" M 137.07 178.19 C 150.71 171.92 168.17 175.53 177.94 187.01 C 188.43 198.48 189.58 217.02 180.73 229.78 C 173.52 240.59 159.97 246.70 147.09 244.94 C 138.30 243.82 130.03 239.30 124.36 232.50 C 121.26 228.54 118.07 223.98 118.15 218.74 C 117.94 218.65 117.51 218.47 117.30 218.38 L 116.95 218.23 C 115.17 208.23 117.02 197.48 123.18 189.26 C 126.89 184.59 131.57 180.60 137.07 178.19 Z" />
</g>
<g id="#00b050ff">
<path fill="#00b050" opacity="1.00" d=" M 116.70 261.42 C 140.69 261.38 164.68 261.22 188.67 261.50 C 188.80 314.19 188.67 366.88 188.73 419.57 C 188.73 483.20 188.68 546.83 188.75 610.46 C 187.21 610.66 186.54 611.50 186.75 612.99 C 186.71 628.40 186.75 643.82 186.74 659.23 C 168.46 649.57 151.71 637.22 135.56 624.36 C 128.33 618.05 120.79 611.97 114.28 604.92 C 113.99 499.62 114.24 394.30 114.16 288.99 C 114.29 279.81 113.87 270.62 114.39 261.45 C 114.97 261.44 116.12 261.43 116.70 261.42 Z" />
</g>
</svg>
