<svg width="396" height="396" xmlns="http://www.w3.org/2000/svg" xmlns:xlink="http://www.w3.org/1999/xlink" xml:space="preserve" overflow="hidden"><defs><clipPath id="clip0"><rect x="269" y="1034" width="396" height="396"/></clipPath></defs><g clip-path="url(#clip0)" transform="translate(-269 -1034)"><path d="M269 1232C269 1122.65 357.648 1034 467 1034 576.353 1034 665 1122.65 665 1232 665 1341.35 576.353 1430 467 1430 357.648 1430 269 1341.35 269 1232Z" fill="#0066CC" fill-rule="evenodd"/><path d="M340 1237.5C340 1190.83 378.056 1153 425 1153 471.944 1153 510 1190.83 510 1237.5 510 1284.17 471.944 1322 425 1322 378.056 1322 340 1284.17 340 1237.5Z" fill="#33CC33" fill-rule="evenodd"/><path d="M319.5 1234.5C319.5 1179.82 363.824 1135.5 418.5 1135.5 473.176 1135.5 517.5 1179.82 517.5 1234.5 517.5 1289.18 473.176 1333.5 418.5 1333.5 363.824 1333.5 319.5 1289.18 319.5 1234.5Z" stroke="#FFFFFF" stroke-width="4.58333" stroke-miterlimit="8" stroke-opacity="0.501961" fill="none" fill-rule="evenodd"/><path d="M409.5 1232.5C409.5 1177.82 453.824 1133.5 508.5 1133.5 563.176 1133.5 607.5 1177.82 607.5 1232.5 607.5 1287.18 563.176 1331.5 508.5 1331.5 453.824 1331.5 409.5 1287.18 409.5 1232.5Z" stroke="#FFFFFF" stroke-width="4.58333" stroke-miterlimit="8" stroke-opacity="0.501961" fill="none" fill-rule="evenodd"/><path d="M425 1237.5C425 1190.83 463.056 1153 510 1153 556.944 1153 595 1190.83 595 1237.5 595 1284.17 556.944 1322 510 1322 463.056 1322 425 1284.17 425 1237.5Z" fill="#33CC33" fill-rule="evenodd"/></g></svg>