<?xml version="1.0" encoding="UTF-8" standalone="no"?>
<svg
   width="396"
   height="396"
   xml:space="preserve"
   overflow="hidden"
   version="1.1"
   id="svg29"
   sodipodi:docname="icon-plain_black.svg"
   inkscape:version="1.2.2 (b0a8486541, 2022-12-01)"
   xmlns:inkscape="http://www.inkscape.org/namespaces/inkscape"
   xmlns:sodipodi="http://sodipodi.sourceforge.net/DTD/sodipodi-0.dtd"
   xmlns="http://www.w3.org/2000/svg"
   xmlns:svg="http://www.w3.org/2000/svg"><sodipodi:namedview
     id="namedview31"
     pagecolor="#ffffff"
     bordercolor="#666666"
     borderopacity="1.0"
     inkscape:showpageshadow="2"
     inkscape:pageopacity="0.0"
     inkscape:pagecheckerboard="0"
     inkscape:deskcolor="#d1d1d1"
     showgrid="false"
     inkscape:zoom="0.50725238"
     inkscape:cx="765.89093"
     inkscape:cy="179.39788"
     inkscape:window-width="1366"
     inkscape:window-height="691"
     inkscape:window-x="0"
     inkscape:window-y="0"
     inkscape:window-maximized="1"
     inkscape:current-layer="svg29" /><defs
     id="defs5"><clipPath
       clipPathUnits="userSpaceOnUse"
       id="clipPath328"><g
         id="g332"><rect
           x="0"
           y="0"
           width="2413"
           height="433"
           id="rect330" /></g></clipPath><clipPath
       clipPathUnits="userSpaceOnUse"
       id="clipPath334"><g
         id="g338"><rect
           x="0"
           y="0"
           width="2413"
           height="433"
           id="rect336" /></g></clipPath><clipPath
       clipPathUnits="userSpaceOnUse"
       id="clipPath340"><g
         id="g344"><rect
           x="0"
           y="0"
           width="2413"
           height="433"
           id="rect342" /></g></clipPath><clipPath
       clipPathUnits="userSpaceOnUse"
       id="clipPath346"><g
         id="g350"><rect
           x="0"
           y="0"
           width="2413"
           height="433"
           id="rect348" /></g></clipPath><clipPath
       clipPathUnits="userSpaceOnUse"
       id="clipPath352"><g
         id="g356"><rect
           x="0"
           y="0"
           width="2413"
           height="433"
           id="rect354" /></g></clipPath><clipPath
       clipPathUnits="userSpaceOnUse"
       id="clipPath358"><g
         id="g362"><rect
           x="0"
           y="0"
           width="2413"
           height="433"
           id="rect360" /></g></clipPath><clipPath
       clipPathUnits="userSpaceOnUse"
       id="clipPath364"><g
         id="g368"><rect
           x="0"
           y="0"
           width="2413"
           height="433"
           id="rect366" /></g></clipPath><clipPath
       clipPathUnits="userSpaceOnUse"
       id="clipPath370"><g
         id="g374"><rect
           x="0"
           y="0"
           width="2413"
           height="433"
           id="rect372" /></g></clipPath></defs><g
     id="g388"
     transform="translate(0,-37)"><path
       d="M 0,235 C 0,125.65 88.648,37 198,37 307.353,37 396,125.65 396,235 396,344.35 307.353,433 198,433 88.648,433 0,344.35 0,235 Z"
       fill="#000000"
       fill-rule="evenodd"
       id="path7"
       clip-path="url(#clipPath370)" /><g
       id="g380"><path
         d="m 71,240.5 c 0,-46.67 38.056,-84.5 85,-84.5 46.944,0 85,37.83 85,84.5 0,46.67 -38.056,84.5 -85,84.5 -46.944,0 -85,-37.83 -85,-84.5 z"
         fill="#000000"
         fill-rule="evenodd"
         id="path9"
         clip-path="url(#clipPath364)" /><path
         d="m 50.5,237.5 c 0,-54.68 44.324,-99 99,-99 54.676,0 99,44.32 99,99 0,54.68 -44.324,99 -99,99 -54.676,0 -99,-44.32 -99,-99 z"
         stroke="#ffffff"
         stroke-width="4.58333"
         stroke-miterlimit="8"
         stroke-opacity="0.501961"
         fill="none"
         fill-rule="evenodd"
         id="path11"
         clip-path="url(#clipPath358)" /><path
         d="m 140.5,235.5 c 0,-54.68 44.324,-99 99,-99 54.676,0 99,44.32 99,99 0,54.68 -44.324,99 -99,99 -54.676,0 -99,-44.32 -99,-99 z"
         stroke="#ffffff"
         stroke-width="4.58333"
         stroke-miterlimit="8"
         stroke-opacity="0.501961"
         fill="none"
         fill-rule="evenodd"
         id="path13"
         clip-path="url(#clipPath352)" /><path
         d="m 156,240.5 c 0,-46.67 38.056,-84.5 85,-84.5 46.944,0 85,37.83 85,84.5 0,46.67 -38.056,84.5 -85,84.5 -46.944,0 -85,-37.83 -85,-84.5 z"
         fill="#000000"
         fill-rule="evenodd"
         id="path25"
         clip-path="url(#clipPath328)" /></g></g></svg>
