<?xml version="1.0" encoding="UTF-8" standalone="no"?>
<svg
   width="2413"
   height="433"
   xml:space="preserve"
   overflow="hidden"
   version="1.1"
   id="svg29"
   sodipodi:docname="logotype (copy).svg"
   inkscape:version="1.2.2 (b0a8486541, 2022-12-01)"
   xmlns:inkscape="http://www.inkscape.org/namespaces/inkscape"
   xmlns:sodipodi="http://sodipodi.sourceforge.net/DTD/sodipodi-0.dtd"
   xmlns="http://www.w3.org/2000/svg"
   xmlns:svg="http://www.w3.org/2000/svg"><sodipodi:namedview
     id="namedview31"
     pagecolor="#ffffff"
     bordercolor="#666666"
     borderopacity="1.0"
     inkscape:showpageshadow="2"
     inkscape:pageopacity="0.0"
     inkscape:pagecheckerboard="0"
     inkscape:deskcolor="#d1d1d1"
     showgrid="false"
     inkscape:zoom="0.50725238"
     inkscape:cx="1132.5723"
     inkscape:cy="216.85458"
     inkscape:window-width="1366"
     inkscape:window-height="691"
     inkscape:window-x="0"
     inkscape:window-y="0"
     inkscape:window-maximized="1"
     inkscape:current-layer="svg29" /><defs
     id="defs5"><clipPath
       clipPathUnits="userSpaceOnUse"
       id="clipPath882"><g
         id="g886"><rect
           x="0"
           y="0"
           width="2413"
           height="433"
           id="rect884" /></g></clipPath><clipPath
       clipPathUnits="userSpaceOnUse"
       id="clipPath888"><g
         id="g892"><rect
           x="0"
           y="0"
           width="2413"
           height="433"
           id="rect890" /></g></clipPath><clipPath
       clipPathUnits="userSpaceOnUse"
       id="clipPath894"><g
         id="g898"><rect
           x="0"
           y="0"
           width="2413"
           height="433"
           id="rect896" /></g></clipPath><clipPath
       clipPathUnits="userSpaceOnUse"
       id="clipPath900"><g
         id="g904"><rect
           x="0"
           y="0"
           width="2413"
           height="433"
           id="rect902" /></g></clipPath><clipPath
       clipPathUnits="userSpaceOnUse"
       id="clipPath906"><g
         id="g910"><rect
           x="0"
           y="0"
           width="2413"
           height="433"
           id="rect908" /></g></clipPath><clipPath
       clipPathUnits="userSpaceOnUse"
       id="clipPath912"><g
         id="g916"><rect
           x="0"
           y="0"
           width="2413"
           height="433"
           id="rect914" /></g></clipPath><clipPath
       clipPathUnits="userSpaceOnUse"
       id="clipPath918"><g
         id="g922"><rect
           x="0"
           y="0"
           width="2413"
           height="433"
           id="rect920" /></g></clipPath><clipPath
       clipPathUnits="userSpaceOnUse"
       id="clipPath924"><g
         id="g928"><rect
           x="0"
           y="0"
           width="2413"
           height="433"
           id="rect926" /></g></clipPath></defs><path
     d="M 0,235 C 0,125.65 88.648,37 198,37 307.353,37 396,125.65 396,235 396,344.35 307.353,433 198,433 88.648,433 0,344.35 0,235 Z"
     fill="#0066cc"
     fill-rule="evenodd"
     id="path7"
     clip-path="url(#clipPath924)"
     style="fill:#000000;fill-opacity:1" /><path
     d="m 71,240.5 c 0,-46.67 38.056,-84.5 85,-84.5 46.944,0 85,37.83 85,84.5 0,46.67 -38.056,84.5 -85,84.5 -46.944,0 -85,-37.83 -85,-84.5 z"
     fill="#33cc33"
     fill-rule="evenodd"
     id="path9"
     clip-path="url(#clipPath918)"
     style="fill:#000000;fill-opacity:1" /><path
     d="m 50.5,237.5 c 0,-54.68 44.324,-99 99,-99 54.676,0 99,44.32 99,99 0,54.68 -44.324,99 -99,99 -54.676,0 -99,-44.32 -99,-99 z"
     stroke="#ffffff"
     stroke-width="4.58333"
     stroke-miterlimit="8"
     stroke-opacity="0.501961"
     fill="none"
     fill-rule="evenodd"
     id="path11"
     clip-path="url(#clipPath912)" /><path
     d="m 140.5,235.5 c 0,-54.68 44.324,-99 99,-99 54.676,0 99,44.32 99,99 0,54.68 -44.324,99 -99,99 -54.676,0 -99,-44.32 -99,-99 z"
     stroke="#ffffff"
     stroke-width="4.58333"
     stroke-miterlimit="8"
     stroke-opacity="0.501961"
     fill="none"
     fill-rule="evenodd"
     id="path13"
     clip-path="url(#clipPath906)" /><path
     d="m 920.36,198.7 c -6.01,0 -11.28,1.1 -15.79,3.3 -4.51,2.21 -8.22,5.43 -11.12,9.67 -2.9,4.25 -5.07,9.35 -6.52,15.31 -1.45,5.96 -2.18,12.76 -2.18,20.38 0,7.09 0.59,13.62 1.78,19.58 1.18,5.96 3.08,11.15 5.72,15.55 2.63,4.4 6.2,7.81 10.71,10.23 4.51,2.42 10.1,3.63 16.76,3.63 6.12,0 11.44,-1.1 15.95,-3.31 4.51,-2.2 8.22,-5.39 11.12,-9.58 2.9,-4.19 5.05,-9.27 6.44,-15.23 1.4,-5.96 2.1,-12.76 2.1,-20.38 0,-7.09 -0.56,-13.62 -1.69,-19.58 -1.13,-5.96 -3.04,-11.15 -5.72,-15.55 -2.69,-4.41 -6.26,-7.84 -10.72,-10.31 -4.46,-2.47 -10.07,-3.71 -16.84,-3.71 z m -177,0 c -6.01,0 -11.28,1.1 -15.788,3.3 -4.512,2.21 -8.218,5.43 -11.118,9.67 -2.9,4.25 -5.076,9.35 -6.526,15.31 -1.45,5.96 -2.175,12.76 -2.175,20.38 0,7.09 0.591,13.62 1.772,19.58 1.182,5.96 3.089,11.15 5.72,15.55 2.632,4.4 6.204,7.81 10.716,10.23 4.512,2.42 10.099,3.63 16.759,3.63 6.12,0 11.44,-1.1 15.95,-3.31 4.51,-2.2 8.22,-5.39 11.12,-9.58 2.9,-4.19 5.05,-9.27 6.44,-15.23 1.4,-5.96 2.1,-12.76 2.1,-20.38 0,-7.09 -0.56,-13.62 -1.69,-19.58 -1.13,-5.96 -3.04,-11.15 -5.72,-15.55 -2.69,-4.41 -6.26,-7.84 -10.72,-10.31 -4.46,-2.47 -10.07,-3.71 -16.84,-3.71 z m 178.45,-32.06 c 12.89,0 24.07,1.74 33.52,5.23 9.45,3.49 17.27,8.62 23.44,15.39 6.18,6.77 10.77,15.09 13.78,24.98 3.01,9.88 4.51,21.21 4.51,33.99 0,12.25 -1.61,23.42 -4.83,33.52 -3.22,10.1 -8.11,18.8 -14.66,26.1 -6.56,7.31 -14.78,12.95 -24.66,16.92 -9.88,3.98 -21.43,5.96 -34.64,5.96 -12.78,0 -23.9,-1.77 -33.36,-5.31 -9.45,-3.55 -17.29,-8.7 -23.52,-15.47 -6.23,-6.77 -10.85,-15.09 -13.86,-24.98 -3.01,-9.88 -4.51,-21.16 -4.51,-33.83 0,-12.25 1.64,-23.45 4.91,-33.6 3.28,-10.15 8.19,-18.85 14.75,-26.1 6.55,-7.26 14.74,-12.87 24.57,-16.84 9.83,-3.98 21.35,-5.96 34.56,-5.96 z m -177,0 c 12.89,0 24.07,1.74 33.52,5.23 9.45,3.49 17.27,8.62 23.44,15.39 6.18,6.77 10.77,15.09 13.78,24.98 3.01,9.88 4.51,21.21 4.51,33.99 0,12.25 -1.61,23.42 -4.83,33.52 -3.22,10.1 -8.11,18.8 -14.66,26.1 -6.56,7.31 -14.78,12.95 -24.66,16.92 -9.88,3.98 -21.43,5.96 -34.64,5.96 -12.785,0 -23.903,-1.77 -33.356,-5.31 -9.453,-3.55 -17.295,-8.7 -23.525,-15.47 -6.231,-6.77 -10.85,-15.09 -13.858,-24.98 -3.008,-9.88 -4.512,-21.16 -4.512,-33.83 0,-12.25 1.639,-23.45 4.915,-33.6 3.276,-10.15 8.191,-18.85 14.744,-26.1 6.552,-7.26 14.743,-12.87 24.572,-16.84 9.829,-3.98 21.35,-5.96 34.56,-5.96 z m -155.983,-53.5 c 5.801,0 11.387,0.48 16.758,1.45 5.371,0.97 10.339,2.23 14.905,3.79 4.565,1.55 8.674,3.35 12.326,5.39 3.653,2.04 6.204,3.79 7.654,5.24 1.45,1.45 2.444,2.66 2.981,3.63 0.537,0.96 0.967,2.2 1.289,3.7 0.322,1.51 0.564,3.28 0.725,5.32 0.161,2.04 0.242,4.57 0.242,7.57 0,3.23 -0.108,5.96 -0.322,8.22 -0.215,2.26 -0.591,4.08 -1.128,5.48 -0.537,1.4 -1.182,2.42 -1.934,3.06 -0.752,0.65 -1.611,0.97 -2.578,0.97 -1.611,0 -3.652,-0.94 -6.123,-2.82 -2.471,-1.88 -5.667,-3.98 -9.587,-6.29 -3.921,-2.31 -8.594,-4.4 -14.019,-6.28 -5.425,-1.88 -11.897,-2.82 -19.417,-2.82 -8.271,0 -15.656,1.69 -22.155,5.08 -6.499,3.38 -12.032,8.21 -16.597,14.5 -4.565,6.28 -8.03,13.88 -10.393,22.8 -2.363,8.91 -3.545,18.96 -3.545,30.13 0,12.25 1.262,22.85 3.787,31.82 2.524,8.97 6.123,16.36 10.796,22.16 4.672,5.8 10.312,10.12 16.919,12.97 6.606,2.85 14.045,4.27 22.316,4.27 7.52,0 14.019,-0.89 19.497,-2.66 5.479,-1.77 10.179,-3.73 14.1,-5.88 3.921,-2.15 7.143,-4.08 9.668,-5.8 2.524,-1.72 4.484,-2.58 5.881,-2.58 1.074,0 1.934,0.22 2.578,0.65 0.645,0.43 1.182,1.28 1.611,2.57 0.43,1.29 0.752,3.09 0.967,5.4 0.215,2.31 0.322,5.4 0.322,9.27 0,2.68 -0.08,4.97 -0.241,6.84 -0.161,1.88 -0.403,3.5 -0.725,4.84 -0.323,1.34 -0.752,2.5 -1.289,3.46 -0.538,0.97 -1.397,2.07 -2.579,3.31 -1.181,1.23 -3.464,2.82 -6.848,4.75 -3.383,1.93 -7.519,3.79 -12.407,5.56 -4.888,1.77 -10.474,3.25 -16.758,4.43 -6.284,1.18 -13.078,1.77 -20.383,1.77 -14.287,0 -27.178,-2.2 -38.672,-6.6 -11.494,-4.41 -21.269,-10.99 -29.326,-19.74 -8.057,-8.76 -14.233,-19.69 -18.53,-32.79 -4.297,-13.11 -6.446,-28.36 -6.446,-45.76 0,-17.73 2.364,-33.47 7.09,-47.22 4.727,-13.75 11.333,-25.29 19.82,-34.64 8.486,-9.35 18.664,-16.44 30.534,-21.27 11.87,-4.83 24.949,-7.25 39.236,-7.25 z"
     stroke="#92d050"
     stroke-width="13"
     stroke-linejoin="round"
     stroke-miterlimit="10"
     fill="#92d050"
     fill-rule="evenodd"
     id="path15"
     clip-path="url(#clipPath900)"
     style="fill:#000000;fill-opacity:1;stroke:#000000;stroke-opacity:1" /><text
     fill="#000000"
     fill-opacity="0"
     font-family="Arial, Arial_MSFontService, sans-serif"
     font-size="215.596px"
     x="492.14697"
     y="301.79004"
     id="text17">Coo</text><path
     d="m 1627.12,254.94 c -7.3,0 -13.64,0.61 -19.01,1.85 -5.37,1.23 -9.83,3.06 -13.38,5.48 -3.54,2.41 -6.15,5.31 -7.81,8.7 -1.67,3.38 -2.5,7.28 -2.5,11.68 0,7.52 2.39,13.51 7.17,17.97 4.78,4.46 11.47,6.68 20.06,6.68 6.99,0 13.46,-1.77 19.42,-5.31 5.96,-3.55 12.22,-8.97 18.77,-16.28 v -30.77 z m -426.51,-63.33 c -6.77,0 -12.51,1.61 -17.24,4.83 -4.73,3.23 -8.57,7.47 -11.52,12.73 -2.96,5.27 -5.1,11.23 -6.45,17.89 -1.34,6.66 -2.01,13.43 -2.01,20.3 0,7.31 0.56,14.45 1.69,21.43 1.13,6.99 3.09,13.19 5.88,18.61 2.79,5.43 6.5,9.78 11.12,13.06 4.62,3.27 10.42,4.91 17.4,4.91 3.55,0 6.96,-0.48 10.23,-1.45 3.28,-0.97 6.64,-2.58 10.07,-4.83 3.44,-2.26 7.04,-5.19 10.8,-8.79 3.76,-3.59 7.73,-8.03 11.92,-13.29 V 219 c -7.19,-8.91 -14.15,-15.71 -20.86,-20.38 -6.72,-4.67 -13.73,-7.01 -21.03,-7.01 z m 771.17,-0.64 c -7.91,0 -14.71,1.39 -20.4,4.19 -5.69,2.79 -10.38,6.74 -14.07,11.84 -3.68,5.1 -6.42,11.14 -8.21,18.13 -1.78,6.98 -2.68,14.61 -2.68,22.88 0,7.95 0.73,15.41 2.2,22.39 1.46,6.99 3.9,13.08 7.31,18.29 3.42,5.21 8,9.35 13.74,12.41 5.75,3.06 12.9,4.59 21.46,4.59 7.81,0 14.58,-1.39 20.33,-4.19 5.74,-2.79 10.46,-6.71 14.14,-11.76 3.69,-5.05 6.4,-11.06 8.13,-18.05 1.74,-6.98 2.6,-14.66 2.6,-23.04 0,-7.84 -0.73,-15.25 -2.19,-22.23 -1.47,-6.99 -3.88,-13.11 -7.24,-18.37 -3.36,-5.27 -7.91,-9.43 -13.66,-12.49 -5.74,-3.06 -12.89,-4.59 -21.46,-4.59 z m -125.55,-19.98 c 2.69,0 4.89,0.1 6.61,0.32 1.72,0.21 3.06,0.54 4.03,0.96 0.96,0.43 1.66,0.97 2.09,1.62 0.43,0.64 0.65,1.34 0.65,2.09 V 321 c 0,0.86 -0.22,1.58 -0.65,2.18 -0.43,0.59 -1.13,1.1 -2.09,1.53 -0.97,0.43 -2.31,0.75 -4.03,0.96 -1.72,0.22 -3.92,0.33 -6.61,0.33 -2.58,0 -4.72,-0.11 -6.44,-0.33 -1.72,-0.21 -3.09,-0.53 -4.11,-0.96 -1.02,-0.43 -1.72,-0.94 -2.1,-1.53 -0.37,-0.6 -0.56,-1.32 -0.56,-2.18 V 175.98 c 0,-0.75 0.19,-1.45 0.56,-2.09 0.38,-0.65 1.08,-1.19 2.1,-1.62 1.02,-0.42 2.39,-0.75 4.11,-0.96 1.72,-0.22 3.86,-0.32 6.44,-0.32 z m -515,0 c 2.69,0 4.89,0.1 6.61,0.32 1.72,0.21 3.06,0.54 4.03,0.96 0.96,0.43 1.66,0.97 2.09,1.62 0.43,0.64 0.65,1.34 0.65,2.09 V 321 c 0,0.86 -0.22,1.58 -0.65,2.18 -0.43,0.59 -1.13,1.1 -2.09,1.53 -0.97,0.43 -2.31,0.75 -4.03,0.96 -1.72,0.22 -3.92,0.33 -6.61,0.33 -2.58,0 -4.72,-0.11 -6.44,-0.33 -1.72,-0.21 -3.09,-0.53 -4.11,-0.96 -1.02,-0.43 -1.72,-0.94 -2.1,-1.53 -0.37,-0.6 -0.56,-1.32 -0.56,-2.18 V 175.98 c 0,-0.75 0.19,-1.45 0.56,-2.09 0.38,-0.65 1.08,-1.19 2.1,-1.62 1.02,-0.42 2.39,-0.75 4.11,-0.96 1.72,-0.22 3.86,-0.32 6.44,-0.32 z m 969.58,-2.26 c 3.87,0 7.74,0.32 11.61,0.97 3.86,0.64 7.35,1.45 10.47,2.41 3.11,0.97 5.77,2.02 7.97,3.15 2.21,1.12 3.87,2.12 5,2.98 1.13,0.86 1.88,1.61 2.26,2.25 0.37,0.65 0.64,1.37 0.8,2.18 0.16,0.8 0.32,1.8 0.49,2.98 0.16,1.18 0.24,2.63 0.24,4.35 0,1.83 -0.08,3.41 -0.24,4.75 -0.17,1.35 -0.43,2.45 -0.81,3.31 -0.38,0.86 -0.83,1.47 -1.37,1.85 -0.54,0.38 -1.13,0.56 -1.77,0.56 -0.97,0 -2.37,-0.59 -4.19,-1.77 -1.83,-1.18 -4.19,-2.44 -7.09,-3.79 -2.9,-1.34 -6.31,-2.6 -10.23,-3.78 -3.92,-1.18 -8.41,-1.78 -13.46,-1.78 -4.51,0 -8.48,0.52 -11.92,1.54 -3.44,1.02 -6.26,2.47 -8.46,4.35 -2.2,1.88 -3.87,4.11 -5,6.68 -1.12,2.58 -1.69,5.37 -1.69,8.38 0,4.19 1.08,7.71 3.22,10.56 2.15,2.84 4.95,5.34 8.38,7.49 3.44,2.15 7.36,4.08 11.77,5.8 4.4,1.72 8.88,3.49 13.45,5.32 4.57,1.82 9.08,3.86 13.54,6.12 4.45,2.26 8.4,5 11.84,8.22 3.44,3.22 6.2,7.09 8.3,11.6 2.09,4.51 3.14,9.88 3.14,16.11 0,7.42 -1.37,14.02 -4.11,19.82 -2.74,5.8 -6.63,10.69 -11.68,14.67 -5.05,3.97 -11.07,6.98 -18.05,9.02 -6.98,2.04 -14.66,3.06 -23.04,3.06 -5.16,0 -10.07,-0.4 -14.74,-1.21 -4.68,-0.8 -8.87,-1.82 -12.57,-3.06 -3.71,-1.24 -6.85,-2.52 -9.43,-3.87 -2.58,-1.34 -4.46,-2.55 -5.64,-3.62 -1.18,-1.08 -2.04,-2.58 -2.58,-4.51 -0.53,-1.94 -0.8,-4.57 -0.8,-7.9 0,-2.04 0.1,-3.76 0.32,-5.16 0.21,-1.39 0.48,-2.52 0.81,-3.38 0.32,-0.86 0.77,-1.48 1.37,-1.85 0.59,-0.38 1.26,-0.57 2.01,-0.57 1.18,0 2.93,0.73 5.24,2.18 2.31,1.45 5.15,3.03 8.54,4.75 3.38,1.72 7.38,3.31 12,4.76 4.62,1.45 9.94,2.17 15.95,2.17 4.51,0 8.6,-0.48 12.25,-1.45 3.65,-0.97 6.82,-2.39 9.51,-4.27 2.68,-1.88 4.75,-4.27 6.2,-7.17 1.45,-2.9 2.17,-6.34 2.17,-10.31 0,-4.08 -1.04,-7.52 -3.14,-10.31 -2.09,-2.8 -4.86,-5.27 -8.3,-7.42 -3.43,-2.15 -7.3,-4.05 -11.6,-5.72 -4.29,-1.66 -8.73,-3.41 -13.29,-5.23 -4.57,-1.83 -9.02,-3.9 -13.38,-6.21 -4.35,-2.31 -8.24,-5.13 -11.68,-8.46 -3.43,-3.33 -6.2,-7.3 -8.3,-11.92 -2.09,-4.62 -3.14,-10.15 -3.14,-16.6 0,-5.69 1.1,-11.14 3.31,-16.35 2.2,-5.21 5.5,-9.78 9.91,-13.7 4.4,-3.92 9.9,-7.06 16.51,-9.43 6.61,-2.36 14.32,-3.54 23.12,-3.54 z m -144.8,0 c 9.67,0 17.81,1.64 24.41,4.91 6.61,3.28 11.95,7.66 16.04,13.14 4.08,5.48 7.01,11.89 8.78,19.25 1.77,7.36 2.66,16.2 2.66,26.51 V 321 c 0,0.86 -0.22,1.58 -0.65,2.18 -0.43,0.59 -1.13,1.1 -2.09,1.53 -0.97,0.43 -2.31,0.75 -4.03,0.96 -1.72,0.22 -3.87,0.33 -6.45,0.33 -2.68,0 -4.88,-0.11 -6.6,-0.33 -1.72,-0.21 -3.06,-0.53 -4.03,-0.96 -0.97,-0.43 -1.67,-0.94 -2.1,-1.53 -0.43,-0.6 -0.64,-1.32 -0.64,-2.18 v -84.92 c 0,-8.27 -0.64,-14.93 -1.93,-19.98 -1.29,-5.05 -3.17,-9.4 -5.64,-13.05 -2.47,-3.65 -5.67,-6.44 -9.59,-8.38 -3.92,-1.93 -8.46,-2.9 -13.62,-2.9 -6.66,0 -13.32,2.37 -19.98,7.09 -6.66,4.73 -13.64,11.66 -20.94,20.79 V 321 c 0,0.86 -0.22,1.58 -0.65,2.18 -0.43,0.59 -1.13,1.1 -2.09,1.53 -0.97,0.43 -2.31,0.75 -4.03,0.96 -1.72,0.22 -3.92,0.33 -6.61,0.33 -2.58,0 -4.72,-0.11 -6.44,-0.33 -1.72,-0.21 -3.09,-0.53 -4.11,-0.96 -1.02,-0.43 -1.72,-0.94 -2.1,-1.53 -0.37,-0.6 -0.56,-1.32 -0.56,-2.18 V 175.98 c 0,-0.86 0.16,-1.58 0.48,-2.17 0.32,-0.6 0.97,-1.13 1.94,-1.62 0.96,-0.48 2.2,-0.8 3.7,-0.96 1.51,-0.16 3.49,-0.24 5.96,-0.24 2.37,0 4.33,0.08 5.89,0.24 1.55,0.16 2.76,0.48 3.62,0.96 0.86,0.49 1.48,1.02 1.85,1.62 0.38,0.59 0.57,1.31 0.57,2.17 v 19.18 c 8.16,-9.14 16.3,-15.82 24.41,-20.07 8.11,-4.24 16.3,-6.36 24.57,-6.36 z m -183.18,0 c 11.92,0 22.31,1.77 31.18,5.32 8.86,3.54 16.24,8.7 22.15,15.47 5.91,6.76 10.34,14.98 13.3,24.65 2.95,9.67 4.43,20.57 4.43,32.71 0,11.82 -1.56,22.69 -4.68,32.63 -3.11,9.94 -7.76,18.5 -13.93,25.7 -6.18,7.2 -13.91,12.81 -23.21,16.84 -9.29,4.03 -20.06,6.04 -32.3,6.04 -11.93,0 -22.32,-1.77 -31.18,-5.32 -8.87,-3.54 -16.25,-8.7 -22.16,-15.47 -5.91,-6.76 -10.31,-14.98 -13.21,-24.65 -2.9,-9.67 -4.35,-20.62 -4.35,-32.87 0,-11.82 1.53,-22.69 4.59,-32.63 3.06,-9.94 7.68,-18.5 13.86,-25.7 6.17,-7.2 13.88,-12.78 23.12,-16.76 9.24,-3.97 20.03,-5.96 32.39,-5.96 z m -353.77,0 c 10.42,0 19.29,1.18 26.59,3.54 7.31,2.37 13.21,5.83 17.73,10.4 4.51,4.56 7.78,10.23 9.83,17 2.04,6.77 3.06,14.66 3.06,23.68 v 97.81 c 0,1.29 -0.43,2.26 -1.29,2.9 -0.86,0.65 -2.04,1.13 -3.55,1.45 -1.5,0.32 -3.7,0.49 -6.6,0.49 -2.8,0 -5.03,-0.17 -6.69,-0.49 -1.67,-0.32 -2.87,-0.8 -3.63,-1.45 -0.75,-0.64 -1.12,-1.61 -1.12,-2.9 v -14.5 c -6.34,6.77 -13.4,12.03 -21.19,15.79 -7.79,3.76 -16.04,5.64 -24.74,5.64 -7.62,0 -14.53,-0.99 -20.7,-2.98 -6.18,-1.99 -11.44,-4.86 -15.79,-8.62 -4.35,-3.76 -7.74,-8.38 -10.15,-13.86 -2.42,-5.48 -3.63,-11.71 -3.63,-18.69 0,-8.16 1.66,-15.25 5,-21.27 3.33,-6.02 8.11,-11.01 14.34,-14.98 6.23,-3.98 13.85,-6.96 22.88,-8.95 9.02,-1.99 19.17,-2.98 30.45,-2.98 h 19.98 v -11.28 c 0,-5.58 -0.59,-10.53 -1.77,-14.82 -1.18,-4.3 -3.09,-7.87 -5.72,-10.72 -2.63,-2.84 -6.04,-4.99 -10.23,-6.44 -4.19,-1.45 -9.35,-2.18 -15.47,-2.18 -6.55,0 -12.44,0.78 -17.65,2.34 -5.21,1.56 -9.77,3.27 -13.69,5.15 -3.92,1.88 -7.2,3.6 -9.83,5.16 -2.63,1.56 -4.59,2.34 -5.88,2.34 -0.86,0 -1.61,-0.22 -2.26,-0.65 -0.64,-0.43 -1.21,-1.07 -1.69,-1.93 -0.48,-0.86 -0.83,-1.96 -1.05,-3.3 -0.21,-1.35 -0.32,-2.82 -0.32,-4.44 0,-2.68 0.19,-4.8 0.56,-6.36 0.38,-1.56 1.29,-3.03 2.74,-4.43 1.45,-1.4 3.95,-3.04 7.5,-4.92 3.54,-1.88 7.62,-3.59 12.24,-5.15 4.62,-1.56 9.67,-2.85 15.15,-3.87 5.48,-1.02 11.01,-1.53 16.59,-1.53 z m -152.05,0 c 9.67,0 17.81,1.64 24.41,4.91 6.61,3.28 11.95,7.66 16.04,13.14 4.08,5.48 7.01,11.89 8.78,19.25 1.77,7.36 2.66,16.2 2.66,26.51 V 321 c 0,0.86 -0.22,1.58 -0.65,2.18 -0.43,0.59 -1.13,1.1 -2.09,1.53 -0.97,0.43 -2.31,0.75 -4.03,0.96 -1.72,0.22 -3.87,0.33 -6.45,0.33 -2.68,0 -4.88,-0.11 -6.6,-0.33 -1.72,-0.21 -3.06,-0.53 -4.03,-0.96 -0.97,-0.43 -1.67,-0.94 -2.1,-1.53 -0.43,-0.6 -0.64,-1.32 -0.64,-2.18 v -84.92 c 0,-8.27 -0.64,-14.93 -1.93,-19.98 -1.29,-5.05 -3.17,-9.4 -5.64,-13.05 -2.47,-3.65 -5.67,-6.44 -9.59,-8.38 -3.92,-1.93 -8.46,-2.9 -13.62,-2.9 -6.66,0 -13.32,2.37 -19.98,7.09 -6.66,4.73 -13.64,11.66 -20.94,20.79 V 321 c 0,0.86 -0.22,1.58 -0.65,2.18 -0.43,0.59 -1.13,1.1 -2.09,1.53 -0.97,0.43 -2.31,0.75 -4.03,0.96 -1.72,0.22 -3.92,0.33 -6.61,0.33 -2.58,0 -4.72,-0.11 -6.44,-0.33 -1.72,-0.21 -3.09,-0.53 -4.11,-0.96 -1.02,-0.43 -1.72,-0.94 -2.1,-1.53 -0.37,-0.6 -0.56,-1.32 -0.56,-2.18 V 175.98 c 0,-0.86 0.16,-1.58 0.48,-2.17 0.32,-0.6 0.97,-1.13 1.94,-1.62 0.96,-0.48 2.2,-0.8 3.7,-0.96 1.51,-0.16 3.49,-0.24 5.96,-0.24 2.37,0 4.33,0.08 5.89,0.24 1.55,0.16 2.76,0.48 3.62,0.96 0.86,0.49 1.48,1.02 1.85,1.62 0.38,0.59 0.57,1.31 0.57,2.17 v 19.18 c 8.16,-9.14 16.3,-15.82 24.41,-20.07 8.11,-4.24 16.3,-6.36 24.57,-6.36 z m -369.34,0 c 1.39,0 2.98,0.08 4.75,0.24 1.77,0.16 3.63,0.46 5.56,0.89 1.93,0.43 3.68,0.91 5.24,1.45 1.55,0.54 2.65,1.07 3.3,1.61 0.64,0.54 1.07,1.05 1.29,1.53 0.21,0.48 0.4,1.1 0.56,1.85 0.16,0.76 0.27,1.86 0.32,3.31 0.06,1.45 0.08,3.41 0.08,5.88 0,2.36 -0.05,4.35 -0.16,5.96 -0.1,1.61 -0.32,2.87 -0.64,3.79 -0.32,0.91 -0.73,1.61 -1.21,2.09 -0.48,0.48 -1.15,0.73 -2.01,0.73 -0.86,0 -1.91,-0.25 -3.15,-0.73 -1.23,-0.48 -2.63,-0.97 -4.18,-1.45 -1.56,-0.48 -3.31,-0.94 -5.24,-1.37 -1.94,-0.43 -4.03,-0.64 -6.29,-0.64 -2.68,0 -5.31,0.53 -7.89,1.61 -2.58,1.07 -5.29,2.84 -8.14,5.32 -2.85,2.47 -5.83,5.74 -8.94,9.82 -3.12,4.09 -6.55,9.08 -10.31,14.99 V 321 c 0,0.86 -0.22,1.58 -0.65,2.18 -0.43,0.59 -1.13,1.1 -2.09,1.53 -0.97,0.43 -2.31,0.75 -4.03,0.96 -1.72,0.22 -3.92,0.33 -6.61,0.33 -2.58,0 -4.72,-0.11 -6.44,-0.33 -1.72,-0.21 -3.09,-0.53 -4.11,-0.96 -1.02,-0.43 -1.72,-0.94 -2.1,-1.53 -0.37,-0.6 -0.56,-1.32 -0.56,-2.18 V 175.98 c 0,-0.86 0.16,-1.58 0.48,-2.17 0.32,-0.6 0.97,-1.13 1.94,-1.62 0.96,-0.48 2.2,-0.8 3.7,-0.96 1.51,-0.16 3.49,-0.24 5.96,-0.24 2.37,0 4.33,0.08 5.89,0.24 1.55,0.16 2.76,0.48 3.62,0.96 0.86,0.49 1.48,1.02 1.85,1.62 0.38,0.59 0.57,1.31 0.57,2.17 v 21.11 c 3.97,-5.8 7.71,-10.53 11.2,-14.18 3.49,-3.65 6.79,-6.53 9.91,-8.62 3.11,-2.1 6.2,-3.55 9.26,-4.35 3.06,-0.81 6.15,-1.21 9.27,-1.21 z m 644.85,-36.58 c 2.68,0 4.88,0.11 6.6,0.33 1.72,0.21 3.06,0.56 4.03,1.04 0.97,0.49 1.67,1.05 2.1,1.69 0.43,0.65 0.64,1.35 0.64,2.1 v 34.48 h 37.22 c 0.86,0 1.61,0.19 2.26,0.57 0.64,0.37 1.21,1.02 1.69,1.93 0.48,0.91 0.83,2.07 1.05,3.46 0.21,1.4 0.32,3.12 0.32,5.16 0,3.87 -0.48,6.66 -1.45,8.38 -0.97,1.72 -2.26,2.58 -3.87,2.58 h -37.22 v 80.89 c 0,9.99 1.48,17.53 4.43,22.63 2.96,5.11 8.25,7.66 15.87,7.66 2.47,0 4.68,-0.24 6.61,-0.73 1.93,-0.48 3.65,-0.99 5.16,-1.53 1.5,-0.53 2.79,-1.04 3.86,-1.53 1.08,-0.48 2.04,-0.72 2.9,-0.72 0.54,0 1.05,0.13 1.53,0.4 0.49,0.27 0.86,0.78 1.13,1.53 0.27,0.75 0.51,1.77 0.73,3.06 0.21,1.29 0.32,2.9 0.32,4.84 0,3.11 -0.22,5.58 -0.65,7.41 -0.43,1.82 -1.07,3.17 -1.93,4.03 -0.86,0.86 -2.15,1.66 -3.87,2.41 -1.71,0.76 -3.68,1.37 -5.88,1.86 -2.2,0.48 -4.54,0.88 -7.01,1.2 -2.47,0.33 -4.94,0.49 -7.41,0.49 -7.52,0 -13.96,-1 -19.33,-2.98 -5.38,-1.99 -9.78,-5 -13.22,-9.03 -3.44,-4.02 -5.93,-9.13 -7.49,-15.3 -1.56,-6.18 -2.34,-13.46 -2.34,-21.84 V 193.87 H 1709 c -1.61,0 -2.9,-0.86 -3.87,-2.58 -0.96,-1.72 -1.45,-4.51 -1.45,-8.38 0,-2.04 0.14,-3.76 0.41,-5.16 0.26,-1.39 0.61,-2.55 1.04,-3.46 0.43,-0.91 1,-1.56 1.7,-1.93 0.69,-0.38 1.47,-0.57 2.33,-0.57 h 20.14 v -34.48 c 0,-0.75 0.19,-1.45 0.57,-2.1 0.37,-0.64 1.07,-1.2 2.09,-1.69 1.02,-0.48 2.39,-0.83 4.11,-1.04 1.72,-0.22 3.87,-0.33 6.45,-0.33 z m 103.87,-20.94 c 6.23,0 10.5,1.1 12.81,3.3 2.31,2.2 3.47,6.36 3.47,12.49 0,6.23 -1.18,10.47 -3.55,12.73 -2.36,2.25 -6.71,3.38 -13.05,3.38 -6.23,0 -10.5,-1.1 -12.81,-3.3 -2.31,-2.21 -3.46,-6.37 -3.46,-12.49 0,-6.23 1.18,-10.47 3.54,-12.73 2.36,-2.26 6.72,-3.38 13.05,-3.38 z m -515,0 c 6.23,0 10.5,1.1 12.81,3.3 2.31,2.2 3.47,6.36 3.47,12.49 0,6.23 -1.18,10.47 -3.55,12.73 -2.36,2.25 -6.71,3.38 -13.05,3.38 -6.23,0 -10.5,-1.1 -12.81,-3.3 -2.31,-2.21 -3.46,-6.37 -3.46,-12.49 0,-6.23 1.18,-10.47 3.54,-12.73 2.36,-2.26 6.72,-3.38 13.05,-3.38 z m -75.67,-9.99 c 2.68,0 4.88,0.13 6.6,0.4 1.72,0.27 3.07,0.59 4.03,0.96 0.97,0.38 1.69,0.92 2.18,1.62 0.48,0.69 0.72,1.42 0.72,2.17 V 321 c 0,0.86 -0.19,1.61 -0.56,2.26 -0.38,0.64 -1.02,1.15 -1.94,1.53 -0.91,0.37 -2.12,0.67 -3.62,0.88 -1.5,0.22 -3.33,0.33 -5.48,0.33 -2.25,0 -4.13,-0.11 -5.64,-0.33 -1.5,-0.21 -2.74,-0.51 -3.7,-0.88 -0.97,-0.38 -1.67,-0.89 -2.1,-1.53 -0.43,-0.65 -0.64,-1.4 -0.64,-2.26 v -19.17 c -7.63,8.27 -15.55,14.71 -23.77,19.33 -8.22,4.62 -17.22,6.93 -26.99,6.93 -10.64,0 -19.71,-2.07 -27.23,-6.2 -7.52,-4.14 -13.62,-9.72 -18.29,-16.76 -4.67,-7.04 -8.08,-15.31 -10.23,-24.82 -2.15,-9.5 -3.23,-19.52 -3.23,-30.05 0,-12.46 1.35,-23.71 4.03,-33.75 2.69,-10.05 6.66,-18.61 11.93,-25.7 5.26,-7.09 11.79,-12.55 19.57,-16.36 7.79,-3.81 16.79,-5.72 26.99,-5.72 8.49,0 16.25,1.85 23.29,5.56 7.03,3.71 13.99,9.16 20.86,16.35 v -84.27 c 0,-0.75 0.19,-1.48 0.57,-2.17 0.37,-0.7 1.1,-1.24 2.17,-1.62 1.08,-0.37 2.45,-0.69 4.11,-0.96 1.67,-0.27 3.79,-0.4 6.37,-0.4 z"
     stroke="#92d050"
     stroke-width="13"
     stroke-linejoin="round"
     stroke-miterlimit="10"
     fill="#92d050"
     fill-rule="evenodd"
     id="path19"
     clip-path="url(#clipPath894)"
     style="fill:#000000;fill-opacity:1;stroke:#000000;stroke-opacity:1" /><text
     fill="#000000"
     fill-opacity="0"
     font-family="Arial, Arial_MSFontService, sans-serif"
     font-size="226.875px"
     x="1034.02"
     y="299.72998"
     id="text21">rdinations</text><path
     d="m 479.418,362.02 h 265.002 265 v 22 h -265 -265.002 z"
     stroke="#92d050"
     stroke-width="13"
     stroke-linejoin="round"
     stroke-miterlimit="10"
     fill="#92d050"
     fill-rule="evenodd"
     id="path23"
     clip-path="url(#clipPath888)"
     style="fill:#000000;fill-opacity:1;stroke:#000000;stroke-opacity:1" /><path
     d="m 156,240.5 c 0,-46.67 38.056,-84.5 85,-84.5 46.944,0 85,37.83 85,84.5 0,46.67 -38.056,84.5 -85,84.5 -46.944,0 -85,-37.83 -85,-84.5 z"
     fill="#33cc33"
     fill-rule="evenodd"
     id="path25"
     clip-path="url(#clipPath882)"
     style="fill:#000000;fill-opacity:1" /></svg>
